<?xml version="1.0" standalone="no"?>
<!DOCTYPE svg PUBLIC "-//W3C//DTD SVG 1.1//EN" "http://www.w3.org/Graphics/SVG/1.1/DTD/svg11.dtd" >
<svg>
<metadata>
Created by FontForge 20090914 at Fri Mar 11 16:17:35 2011
 By apache
\251   m klein   8.03
</metadata>
<defs>
<font id="BabelSans" horiz-adv-x="435" >
  <font-face 
    font-family="BabelSans"
    font-weight="500"
    font-stretch="normal"
    units-per-em="1000"
    panose-1="2 0 6 6 2 0 0 2 0 4"
    ascent="800"
    descent="-200"
    x-height="531"
    cap-height="724"
    bbox="-187 -236 830 918"
    underline-thickness="20"
    underline-position="-123"
    unicode-range="U+0005-U+E010"
  />
<missing-glyph horiz-adv-x="1000" 
 />
    <glyph glyph-name=".notdef" horiz-adv-x="1000" 
 />
    <glyph glyph-name="breve" horiz-adv-x="260" 
d="M130 588q58 0 86.5 39t33.5 96h-59q-6 -36 -19.5 -53t-45.5 -17q-28 0 -41.5 18.5t-18.5 51.5h-55q3 -29 11 -53.5t22 -42.5t35.5 -28.5t50.5 -10.5z" />
    <glyph glyph-name="dotaccent" horiz-adv-x="260" 
d="M82 592h96v108h-96v-108z" />
    <glyph glyph-name="ring" horiz-adv-x="260" 
d="M130 559q23 0 40 9t28.5 23t17 30.5t5.5 32.5t-6 32.5t-17 30.5t-28.5 23t-39.5 9t-39 -9t-28.5 -22.5t-17.5 -30t-6 -31.5q0 -16 5.5 -33t16.5 -31.5t28.5 -23.5t40.5 -9zM132 703q21 0 32 -16.5t11 -33.5q0 -16 -11 -32.5t-32 -16.5q-22 0 -32.5 17t-10.5 33
q0 17 10.5 33t32.5 16z" />
    <glyph glyph-name="hungarumlaut" unicode="&#xa;" horiz-adv-x="254" 
d="M220 592l78 136h-105l-48 -136h75zM84 593l79 135h-106l-46 -135h73z" />
    <glyph glyph-name="ogonek" horiz-adv-x="260" 
d="M154 -216q22 0 46 9.5t44 22.5v66q-23 -15 -39.5 -22t-32.5 -7q-23 0 -35 19t-12 43q0 19 3.5 38t11.5 45h-61q-7 -29 -11 -55.5t-4 -52.5q0 -20 5.5 -39t16.5 -34t28 -24t40 -9z" />
    <glyph glyph-name="caron" horiz-adv-x="260" 
d="M187 597l84 131h-92l-40 -79l-42 79h-91l78 -131h103z" />
    <glyph glyph-name="dotlessi" unicode="&#xd;" horiz-adv-x="217" 
d="M70 -8h81v539h-81v-539z" />
    <glyph glyph-name="fraction" horiz-adv-x="124" 
d="M-110 -20l423 756h-76l-424 -756h77z" />
    <glyph glyph-name="fi" horiz-adv-x="391" 
d="M263 624h81v99h-81v-99zM264 -8h80v539h-80v-539zM244 644l10 76q-22 9 -40.5 12.5t-37.5 3.5q-44 0 -67 -20.5t-33.5 -51.5t-12 -67t-1.5 -66h-61v-68h61v-471h81v471h79v68h-79q0 9 -0.5 18t-0.5 19q0 15 1.5 30t7 27t16.5 20t31 8q9 0 19 -2t27 -7z" />
    <glyph glyph-name="fl" horiz-adv-x="391" 
d="M263 -8h81v731h-81v-731zM241 643l13 77q-22 9 -40.5 12.5t-37.5 3.5q-44 0 -67 -20.5t-33.5 -51.5t-12 -67t-1.5 -66h-61v-68h61v-471h81v471h79v68h-78q0 8 -0.5 17.5t-0.5 18.5q0 15 1 30t6.5 27t16.5 20t31 8q8 0 18 -2t25 -7z" />
    <glyph glyph-name="Lslash" horiz-adv-x="601" 
d="M339 -8h233v80l-133 -3q67 62 95 142.5t28 170.5q0 57 -12.5 120t-42 116.5t-78 88.5t-120.5 35t-121 -34.5t-79 -87.5t-43 -116t-13 -121q0 -91 27 -171.5t96 -141.5l-137 3v-81h236v99q-38 22 -63.5 56t-40.5 74t-21.5 83t-6.5 84q0 42 7.5 89.5t26 88.5t50.5 68t81 27
t81 -27.5t51 -69t26.5 -89.5t7.5 -90t-7 -84.5t-23 -82t-42 -73.5t-63 -58v-95z" />
    <glyph glyph-name="lslash" horiz-adv-x="429" 
d="M374 450h63v77h-445v-77h61v-458h84v458h153v-458h84v458z" />
    <glyph glyph-name="Zcaron" horiz-adv-x="451" 
d="M319 -8h77v539h-80v-239v-66q0 -39 -7.5 -76t-27.5 -63t-59 -26q-38 0 -56.5 27t-25.5 64.5t-7 76.5v64v238h-79v-738h80v234q16 -22 36.5 -34.5t53.5 -12.5q35 0 57 13.5t38 36.5v-38z" />
    <glyph glyph-name="zcaron" horiz-adv-x="432" 
d="M-19 705h470v65h-470v-65z" />
    <glyph glyph-name="space" unicode=" " horiz-adv-x="222" 
 />
    <glyph glyph-name="exclam" unicode="!" horiz-adv-x="217" 
d="M152 437q2 35 4 60t2 60v167h-96v-167q0 -35 2 -60.5t4 -59.5l14 -248h57zM64 -8h92v99h-92v-99z" />
    <glyph glyph-name="quotedbl" unicode="&#x22;" horiz-adv-x="278" 
d="M240 538l4 31t2 28v127h-87v-125q0 -30 6 -63l11 -63h54q2 18 5 34t5 31zM113 539l4 31t2 27v127h-88v-125q0 -29 6.5 -63t10.5 -63h55q2 18 5 34t5 32z" />
    <glyph glyph-name="numbersign" unicode="#" 
d="M314 189h118v82h-107l31 185h76v71h-65l34 209h-71l-33 -209h-109l32 209h-69l-33 -209h-118v-73h106l-30 -186h-76v-72h65l-35 -216h71l33 209h109l-33 -209h70zM176 453h109l-31 -184h-108z" />
    <glyph glyph-name="dollar" unicode="$" 
d="M243 -22q42 4 72 25.5t49.5 52.5t29 68.5t9.5 73.5q0 57 -22.5 106.5t-74.5 79.5q-15 8 -31 13.5l-32 10.5v261q30 -12 43 -41t18 -69l82 14q-8 70 -43 116.5t-103 57.5v34h-55v-34q-40 -6 -69 -24.5t-48 -45.5t-28 -61t-9 -73q0 -77 38.5 -130.5t113.5 -72.5v-285
q-21 5 -35.5 19.5t-24 35.5t-15 45.5t-8.5 49.5l-77 -18q4 -86 40.5 -140t119.5 -70v-77h60v78zM185 673v-245q-39 17 -57 46.5t-18 76.5q0 41 18.5 75.5t56.5 46.5zM241 321q44 -21 62.5 -48.5t18.5 -79.5q0 -21 -5 -43.5t-14.5 -42t-25 -34t-36.5 -20.5v268z" />
    <glyph glyph-name="percent" unicode="%" horiz-adv-x="695" 
d="M162 349q38 0 62.5 20t39 49.5t20 63t5.5 60.5q0 28 -5 62t-19.5 63.5t-39.5 49t-64 19.5q-37 0 -61 -19.5t-38.5 -48t-20 -61.5t-5.5 -60t5 -61.5t18.5 -64.5t38 -51t64.5 -21zM227 -28l312 764h-69l-315 -764h72zM527 -34q39 0 64 19.5t39.5 49t20 63t5.5 61.5t-5.5 62
t-20 63t-39.5 49t-64 20q-38 0 -62 -19.5t-38 -48t-19.5 -61.5t-5.5 -60t5 -61.5t18.5 -64.5t38 -51t63.5 -21zM163 671q21 0 32 -14.5t16 -34.5t6 -41.5t1 -35.5t-0.5 -36.5t-5.5 -43.5t-16.5 -36.5t-32.5 -15.5q-20 0 -31 14.5t-16 34.5t-5.5 41t-0.5 35t0.5 36.5t5 44
t15.5 37t32 15.5zM529 288q21 0 32 -14.5t16 -34.5t6 -41.5t1 -35.5q0 -15 -0.5 -37.5t-5.5 -43.5t-16 -36t-33 -15q-20 0 -31 14.5t-16 34.5t-6 41t-1 35t0.5 36.5t5.5 44t16 37t32 15.5z" />
    <glyph glyph-name="ampersand" unicode="&#x26;" horiz-adv-x="521" 
d="M464 -21l48 74q-28 26 -49 52.5t-38 55.5q16 32 26.5 68.5t18.5 77.5l-80 21q-5 -24 -9 -41.5t-10 -34.5l-93 151q44 30 73.5 73t29.5 101q0 29 -9 57.5t-26 51t-43 36.5t-59 14q-35 0 -61.5 -15.5t-45 -40t-28 -55t-9.5 -60.5q0 -45 18.5 -83t41.5 -73
q-58 -36 -95 -88.5t-37 -125.5q0 -41 12.5 -79.5t36.5 -68.5t58.5 -48.5t79.5 -18.5q54 0 94 27t69 66q17 -24 37.5 -47.5t48.5 -46.5zM241 663q15 0 26 -7.5t18.5 -19t11 -26.5t3.5 -30q0 -39 -17 -64t-46 -49q-18 25 -37 55t-19 62q0 30 15.5 54.5t44.5 24.5zM200 343
l125 -194q-8 -16 -20 -31.5t-26.5 -28t-31 -20t-34.5 -7.5q-23 0 -41.5 13t-31.5 32.5t-19.5 43.5t-6.5 46q0 48 25.5 82.5t60.5 63.5z" />
    <glyph glyph-name="quotesingle" unicode="'" horiz-adv-x="150" 
d="M111 539l4 31t2 27v127h-87v-128q0 -27 5.5 -59t9.5 -64h56q2 18 5 34t5 32z" />
    <glyph glyph-name="parenleft" unicode="(" horiz-adv-x="260" 
d="M181 -218h63q-58 118 -89 236t-31 241q0 66 7.5 124.5t22.5 115.5t36.5 115t50.5 122h-61q-67 -114 -103.5 -230t-36.5 -247q0 -124 36 -247t105 -230z" />
    <glyph glyph-name="parenright" unicode=")" horiz-adv-x="260" 
d="M102 -218q66 108 102 230.5t36 246.5q0 130 -37 247t-102 230h-63q28 -64 50 -122t37 -115t23 -115.5t8 -124.5q0 -123 -31.5 -241t-89.5 -236h67z" />
    <glyph glyph-name="asterisk" unicode="*" horiz-adv-x="304" 
d="M187 557q23 5 45.5 12t48.5 18l-17 67q-26 -11 -46.5 -21t-40.5 -21q3 29 5 59t3 65h-68q1 -35 2.5 -65t4.5 -59q-20 11 -41.5 21l-45.5 21l-18 -67q28 -10 50.5 -17t45.5 -13q-17 -21 -31.5 -43l-28.5 -45l51 -46q15 25 25 46.5l19 41.5l21 -43l25 -48l54 49l-31.5 46.5
t-31.5 41.5z" />
    <glyph glyph-name="plus" unicode="+" horiz-adv-x="457" 
d="M267 312h154v82h-154v195h-77v-195h-154v-82h154v-196h77v196z" />
    <glyph glyph-name="comma" unicode="," horiz-adv-x="217" 
d="M79 -148q23 12 37.5 28t22.5 34t11 37.5t3 40.5v99h-89v-99h40q-2 -29 -10.5 -54.5t-37.5 -41.5z" />
    <glyph glyph-name="hyphen" unicode="-" horiz-adv-x="260" 
d="M-7 269h225v88h-225v-88z" />
    <glyph glyph-name="period" unicode="." horiz-adv-x="217" 
d="M65 -8h90v99h-90v-99z" />
    <glyph glyph-name="slash" unicode="/" horiz-adv-x="216" 
d="M59 -20l167 756h-68l-168 -756h69z" />
    <glyph glyph-name="zero" unicode="0" 
d="M215 -20q45 0 76.5 19.5t52.5 51t33 72t18.5 82t8 80.5t1.5 68t-1.5 68t-8 81t-19 82t-33.5 72t-52 51.5t-76 19.5t-76.5 -19.5t-52.5 -51t-33 -72t-18.5 -82t-8 -81t-1.5 -68.5t1.5 -68t7.5 -80.5t18.5 -82t33.5 -72t52.5 -51t76.5 -19.5zM322 433q2 -25 1.5 -45.5
t-0.5 -34.5q0 -19 -0.5 -48.5t-3 -63t-9 -67t-18.5 -60.5t-31 -44t-46 -17q-28 0 -46.5 17t-30.5 44t-18 60.5t-8.5 67t-3 63t-0.5 48.5t0.5 48.5t3 62.5t9 66.5t18 60.5t30 44t45.5 17q34 0 55 -25t32 -60t15.5 -72t5.5 -62z" />
    <glyph glyph-name="one" unicode="1" 
d="M214 -8h84v735h-55q-22 -58 -67 -106.5t-98 -80.5v-90q39 17 74.5 41.5t61.5 50.5v-550z" />
    <glyph glyph-name="two" unicode="2" 
d="M14 -8h389v87h-277q20 36 48 66.5l56 60.5l61 67.5t55.5 72.5t40 80t15.5 90q0 40 -11.5 78t-34 67.5t-56.5 47.5t-79 18q-47 0 -81.5 -16t-57 -44.5t-34 -67t-14.5 -83.5l80 -10q0 30 5.5 56.5t18.5 46.5t32.5 32t48.5 12q24 0 42.5 -9.5t31.5 -26t19.5 -38t6.5 -45.5
q0 -47 -22.5 -89t-56.5 -83t-73.5 -82t-73.5 -85.5t-56.5 -94.5t-22.5 -108z" />
    <glyph glyph-name="three" unicode="3" 
d="M211 -21q47 0 83 20t60.5 52.5t37 73.5t12.5 83q0 26 -4.5 52.5t-15.5 50.5t-29 43t-45 30q35 26 51.5 64.5t16.5 80.5q0 36 -11 71.5t-32.5 63.5t-53 45.5t-72.5 17.5q-40 0 -70 -14.5t-51 -39.5t-34 -58t-19 -70l78 -18q3 25 9.5 47.5t18 40t28 27.5t40.5 10
q22 0 38 -10t26.5 -26t16 -36t5.5 -41q0 -57 -30.5 -90t-94.5 -33l-2 -76q17 2 29 3t23 1q26 0 45.5 -12.5t32 -33t18.5 -45.5t6 -49q0 -26 -7 -52.5t-21 -48t-34.5 -35.5t-48.5 -14q-26 0 -44 11.5t-30 31t-19 44t-11 51.5l-80 -12q3 -41 16.5 -77.5t36.5 -64t56 -43.5
t75 -16z" />
    <glyph glyph-name="four" unicode="4" 
d="M328 172h76v80h-76v472h-64l-262 -470v-82h246v-180h80v180zM246 545v-291h-160z" />
    <glyph glyph-name="five" unicode="5" 
d="M212 -20q52 0 89 24.5t61 62t35.5 83.5t11.5 88q0 39 -10.5 81t-33 76.5t-57 57t-82.5 22.5q-26 0 -50 -8.5t-45 -22.5l29 188h224v82h-289l-57 -374l76 -13q17 32 42.5 50t56.5 18t53 -15t35 -38.5t19 -53t6 -57.5t-6 -59t-19.5 -57.5t-35.5 -43.5t-53 -17q-25 0 -43 11
t-30 30t-19.5 43.5t-10.5 50.5l-82 -9q3 -42 16 -78.5t36.5 -63.5t56.5 -42.5t76 -15.5z" />
    <glyph glyph-name="six" unicode="6" 
d="M224 -20q49 0 84 24t56.5 60.5t31.5 80.5t10 83q0 37 -9.5 78.5t-30.5 76.5t-54 58.5t-80 23.5q-41 0 -73 -19.5t-55 -50.5q1 34 6 78.5t18 84t36.5 67t61.5 27.5q21 0 36 -9t25.5 -25t16.5 -36.5t10 -42.5l80 8q-4 37 -16 70t-32 57.5t-49.5 38.5t-68.5 14
q-48 0 -81.5 -20.5t-56.5 -53.5t-36.5 -75t-20.5 -85.5t-9 -85t-2 -72.5t2.5 -69.5t9.5 -78t20.5 -76.5t36 -66.5t55.5 -47t78 -17.5zM221 385q30 0 50 -15.5t32 -39.5t17 -52.5t5 -54.5t-5 -55.5t-17 -54.5t-31.5 -42t-47.5 -17q-30 0 -51 17t-34.5 43t-19.5 56.5t-6 57.5
q0 26 6 53.5t19.5 50.5t33.5 38t49 15z" />
    <glyph glyph-name="seven" unicode="7" 
d="M191 -8q4 80 20.5 167t44.5 172t65.5 163.5t83.5 141.5v79h-374v-84h275q-42 -63 -78 -142t-62 -163.5t-40.5 -170t-15.5 -163.5h81z" />
    <glyph glyph-name="eight" unicode="8" 
d="M216 -20q47 0 82.5 19.5t59 51t35.5 71.5t12 82q0 58 -22.5 107.5t-75.5 76.5q40 23 58 60t18 83q0 37 -10.5 72t-31.5 62.5t-52.5 44.5t-73.5 17q-41 0 -72 -16.5t-51.5 -43.5t-31 -62t-10.5 -71q0 -47 18 -84.5t58 -60.5q-27 -12 -46 -31.5t-31 -43.5t-17 -51.5
t-5 -55.5q0 -42 11.5 -82.5t34.5 -73t59 -52t84 -19.5zM216 652q22 0 38 -10.5t27 -27t16.5 -37.5t5.5 -41q0 -21 -5.5 -41t-16.5 -35.5t-27 -25.5t-37 -10q-23 0 -39 10.5t-27 27t-16 37.5t-5 42q0 20 5.5 40t16.5 35.5t27 25.5t37 10zM214 347q28 0 49 -13.5t34.5 -34.5
t20.5 -47.5t7 -52.5t-6.5 -52t-20 -46.5t-34 -33.5t-48.5 -13t-48.5 13.5t-34 34.5t-20 47.5t-6.5 52.5q0 25 6.5 51t19.5 47t33.5 34t47.5 13z" />
    <glyph glyph-name="nine" unicode="9" 
d="M201 -20q48 0 82 20.5t57 53.5t36 75t20 85.5t9 85t2 73.5q0 38 -2 81.5t-11.5 86t-28.5 80.5t-52 66q-23 19 -49 29.5t-56 10.5q-50 0 -84.5 -23.5t-56.5 -59.5t-31.5 -79.5t-9.5 -83.5q0 -38 9.5 -79.5t30 -77t53.5 -58.5t81 -23q39 0 71.5 20t54.5 49q-1 -35 -6 -79.5
t-18.5 -84t-37.5 -66.5t-63 -27q-22 0 -37 8.5t-25 23.5t-16 35.5t-9 44.5l-78 -9q4 -38 15.5 -70.5t32 -56.5t49.5 -37.5t68 -13.5zM217 653q28 0 48 -16.5t32 -42t17.5 -55t5.5 -54.5q0 -27 -5 -55.5t-17.5 -52.5t-32.5 -39.5t-50 -15.5q-29 0 -49 14.5t-33.5 37
t-19.5 50.5t-6 54t6 56.5t19.5 57t34 44t50.5 17.5z" />
    <glyph glyph-name="colon" unicode=":" horiz-adv-x="217" 
d="M65 427h89v100h-89v-100zM65 -8h89v99h-89v-99z" />
    <glyph glyph-name="semicolon" unicode=";" horiz-adv-x="217" 
d="M64 427h90v100h-90v-100zM79 -148q23 12 37.5 28t22.5 34t11 37.5t3 40.5v99h-89v-99h39q-2 -29 -10 -54.5t-37 -41.5z" />
    <glyph glyph-name="less" unicode="&#x3c;" horiz-adv-x="457" 
d="M36 318l385 -207v86l-300 156l297 153v89l-382 -203v-74z" />
    <glyph glyph-name="equal" unicode="=" horiz-adv-x="457" 
d="M36 421h385v82h-385v-82zM36 204h385v81h-385v-81z" />
    <glyph glyph-name="greater" unicode="&#x3e;" horiz-adv-x="457" 
d="M37 110l383 206v76l-383 203v-87l299 -155l-299 -156v-87z" />
    <glyph glyph-name="question" unicode="?" 
d="M315 353q37 41 61 83t24 101q0 40 -12.5 76.5t-36.5 63.5t-58.5 43t-77.5 16q-46 0 -79 -16t-55.5 -44t-35.5 -65.5t-17 -80.5l82 -12q3 28 10 53.5t19.5 45.5t31.5 32t46 12q24 0 42.5 -11.5t32 -30.5t20.5 -42t7 -45q0 -27 -10 -49.5t-25 -43t-32 -40t-32 -38.5
q-17 -23 -26 -42.5t-13.5 -39.5t-5.5 -42t-1 -50h79q0 36 2 57.5t8.5 38t19 32zM169 -8h89v99h-89v-99z" />
    <glyph glyph-name="at" unicode="@" horiz-adv-x="795" 
d="M679 92q40 57 59.5 122t19.5 134q0 74 -22 144t-64.5 124.5t-105 87.5t-144.5 33q-69 0 -124 -21.5t-98 -58.5t-74.5 -87t-52 -106.5t-30 -116.5t-9.5 -118q0 -93 23.5 -174.5t73 -142.5t126 -95.5t181.5 -34.5q-2 15 -2 39t3 37q-89 0 -152.5 29.5t-104.5 80.5t-60 120
t-19 149q0 72 18.5 148t57 137.5t98 101t142.5 39.5q64 0 114.5 -26.5t85 -71t53 -101t18.5 -116.5q0 -33 -6 -67.5t-18 -67t-30 -61.5t-42 -51l-23 -18.5t-27 -10.5q-8 0 -13.5 9.5t-5.5 21.5q0 23 4.5 44.5t8.5 44.5l54 331h-79l-10 -60q-18 29 -46.5 51.5t-66.5 22.5
q-53 0 -92 -35t-65 -85t-39 -104.5t-13 -94.5q0 -30 7.5 -69.5t25 -74.5t46 -59t69.5 -24q35 0 64 20.5t49 46.5q5 -30 22.5 -49t56.5 -19q26 0 49 9t42.5 23.5t36 32.5t30.5 37zM393 463q24 0 39.5 -14t25.5 -35t14 -46t4 -47q0 -29 -5.5 -64t-16.5 -68.5t-29 -62
t-42 -44.5q-11 -7 -21.5 -11.5t-21.5 -4.5q-24 0 -38.5 15.5t-23 38t-11.5 46.5t-3 42q0 29 7.5 72.5t23.5 84t40.5 69.5t57.5 29z" />
    <glyph glyph-name="A" unicode="A" horiz-adv-x="524" 
d="M437 -8h99l-237 732h-88l-222 -732h93l62 219h227zM254 600q20 -77 43 -153l46 -152h-173l46 151.5t38 153.5z" />
    <glyph glyph-name="B" unicode="B" horiz-adv-x="521" 
d="M270 -8q105 0 163.5 53.5t58.5 161.5q0 55 -25 103t-76 72q35 27 52 66.5t17 83.5q0 91 -52 141.5t-141 50.5h-218v-732h221zM243 639q33 0 58 -4.5t41.5 -16.5t25 -34.5t8.5 -58.5q0 -33 -7.5 -54t-23 -33t-39 -17t-54.5 -5h-117v223h108zM260 330q68 0 106 -28t38 -99
q0 -69 -33.5 -98t-99.5 -29h-136v254h125z" />
    <glyph glyph-name="C" unicode="C" horiz-adv-x="565" 
d="M302 -20q54 0 95 20.5t70 54.5t47.5 78.5t28.5 93.5l-83 27q-7 -38 -19 -72t-31.5 -60.5t-47.5 -42t-65 -15.5q-56 0 -90.5 29.5t-54 74.5t-26.5 97.5t-7 98.5t7.5 97t27.5 94t55 70.5t90 27.5q32 0 55.5 -11t41 -30.5t29 -46.5t19.5 -59l85 23q-12 45 -31.5 83t-48 65.5
t-65.5 43t-84 15.5q-77 0 -128 -35.5t-82.5 -90.5t-44.5 -120.5t-13 -126.5q0 -64 12 -131.5t43 -123.5t83 -92t132 -36z" />
    <glyph glyph-name="D" unicode="D" horiz-adv-x="565" 
d="M424 42q32 27 52.5 66.5t32.5 83t17 88t5 82.5q0 46 -7 101t-26.5 105t-54 90t-88.5 56q-24 8 -51 9t-51 1h-200v-732h210q42 0 84.5 10.5t76.5 39.5zM347 624q31 -16 50.5 -46.5t30 -67t14 -75.5t3.5 -72q0 -35 -3.5 -76.5t-15 -80t-32 -70t-54.5 -46.5
q-20 -8 -42 -10.5t-44 -2.5h-114v562h112q23 0 49 -2.5t46 -12.5z" />
    <glyph glyph-name="E" unicode="E" horiz-adv-x="521" 
d="M54 -8h433v84h-347v252h289v84h-289v228h334v84h-420v-732z" />
    <glyph glyph-name="F" unicode="F" horiz-adv-x="478" 
d="M143 640h307v84h-393v-732h86v333h265v84h-265v231z" />
    <glyph glyph-name="G" unicode="G" horiz-adv-x="608" 
d="M559 89h9v275l-253 -1v-82h167v-142q-28 -31 -72.5 -50.5t-86.5 -19.5q-59 0 -98 26.5t-62 68.5t-32.5 93.5t-9.5 102.5t9.5 103t32.5 94t61.5 68.5t97.5 26.5q37 0 63.5 -12t45.5 -34t31 -52.5t21 -67.5l76 26q-10 50 -28.5 91.5t-47 71t-68.5 45.5t-94 16
q-80 0 -135 -34.5t-89 -89.5t-48.5 -123t-14.5 -135t16 -134t51.5 -120t91 -86.5t135.5 -33.5q42 0 81 14.5t74 35.5v-38h84v105z" />
    <glyph glyph-name="H" unicode="H" horiz-adv-x="565" 
d="M424 -8h86v732h-86v-302h-283v302h-86v-732h86v346h283v-346z" />
    <glyph glyph-name="I" unicode="I" horiz-adv-x="217" 
d="M67 -8h86v732h-86v-732z" />
    <glyph glyph-name="J" unicode="J" horiz-adv-x="391" 
d="M172 -20q55 0 87.5 24t50 60.5t22.5 80.5t5 83v496h-86v-514q0 -22 -1 -47.5t-8.5 -47t-23.5 -36t-46 -14.5q-26 0 -41 12t-23 32t-10.5 45.5t-3.5 51.5l-79 -13v-14q0 -38 7.5 -74t25.5 -63.5t48 -44.5t76 -17z" />
    <glyph glyph-name="K" unicode="K" horiz-adv-x="521" 
d="M423 -8h111l-249 433l234 299h-98l-285 -355v355h-86v-732h88v254l87 102z" />
    <glyph glyph-name="L" unicode="L" 
d="M50 -8h365v84h-279v648h-86v-732z" />
    <glyph glyph-name="M" unicode="M" horiz-adv-x="651" 
d="M513 -8h88v732h-111l-27 -98.5l-31 -110l-31.5 -112l-29.5 -105l-25 -88.5l-18 -62l-17 62.5l-24.5 88.5l-28.5 105l-30 112l-29.5 110l-26.5 98h-123v-732h86v558l150 -558h81l147 538v-538z" />
    <glyph glyph-name="N" unicode="N" horiz-adv-x="565" 
d="M423 -8h86v732h-84v-544l-288 544h-85v-732h84v544z" />
    <glyph glyph-name="O" unicode="O" horiz-adv-x="608" 
d="M305 -20q51 0 91.5 16.5t71 45t52.5 65.5t35.5 79t20 86t6.5 85q0 61 -14.5 128.5t-47 123t-85.5 92t-129 36.5q-53 0 -94 -17t-71.5 -46.5t-52 -68t-34.5 -81.5t-18.5 -88t-5.5 -87q0 -61 15.5 -126t48.5 -119t85 -89t126 -35zM307 653q54 0 90 -29t57.5 -73.5
t30.5 -96.5t9 -98q0 -47 -8.5 -98.5t-30.5 -95t-58.5 -72t-91.5 -28.5q-53 0 -89 27t-58 69t-31.5 92t-9.5 96q0 28 2 60.5t8 64.5t17 61t29 51q26 32 59 51t75 19z" />
    <glyph glyph-name="P" unicode="P" horiz-adv-x="521" 
d="M447 354q26 35 37 75t11 82q0 52 -18 100q-15 37 -35.5 59.5t-47 34.5t-57.5 15.5t-66 3.5h-218v-732h86v297h112q22 0 50 2.5t55.5 9.5t51.5 20t39 33zM347 633q17 -6 28.5 -19t19 -30t10.5 -36.5t3 -37.5q0 -66 -41.5 -99.5t-110.5 -33.5h-116v262h139q14 0 34 -0.5
t34 -5.5z" />
    <glyph glyph-name="Q" unicode="Q" horiz-adv-x="608" 
d="M305 -20q51 0 91.5 16.5t71 45t52.5 65.5t35.5 79t20 86t6.5 85q0 61 -14.5 128.5t-47 123t-85.5 92t-129 36.5q-53 0 -94 -17t-71.5 -46.5t-52 -68t-34.5 -81.5t-18.5 -88t-5.5 -87q0 -61 15.5 -126t48.5 -119t85 -89t126 -35zM479 -184l41 78l-200 103l-41 -78z
M307 653q54 0 90 -29t57.5 -73.5t30.5 -96.5t9 -98q0 -47 -8.5 -98.5t-30.5 -95t-58.5 -72t-91.5 -28.5q-53 0 -89 27t-58 69t-31.5 92t-9.5 96q0 28 2 60.5t8 64.5t17 61t29 51q26 32 59 51t75 19z" />
    <glyph glyph-name="R" unicode="R" horiz-adv-x="565" 
d="M461 -8h107l-105 207q-19 38 -41.5 70t-57.5 58q73 17 112 67.5t39 128.5q0 59 -25 110q-15 30 -34 48t-42 27.5t-49 12.5t-56 3h-255v-732h86v326h70q24 0 40 -4t33 -18q11 -10 27 -33.5t34.5 -54l37.5 -65l35 -65l27.5 -54t16.5 -32.5zM314 644q57 0 86.5 -31.5
t29.5 -88.5q0 -66 -35.5 -94.5t-98.5 -28.5h-155v243h173z" />
    <glyph glyph-name="S" unicode="S" horiz-adv-x="521" 
d="M273 -20q48 0 87 17t67.5 46t44 69t15.5 87q0 54 -16 90t-42 60t-59 38.5t-67 25.5l-33.5 10l-31.5 10q-20 7 -39.5 15t-34.5 20.5t-24.5 30t-9.5 43.5q0 56 35 81.5t88 25.5q64 0 95 -34t37 -103l81 9q-3 103 -61.5 159t-154.5 56q-45 0 -82 -14.5t-64 -41.5
t-41.5 -64.5t-14.5 -82.5q0 -51 16 -85t42.5 -56.5t59.5 -36t66 -23.5l33 -10t32 -11q22 -8 41.5 -17.5t34 -23.5t23 -33.5t8.5 -46.5q0 -60 -38 -91.5t-97 -31.5q-76 0 -115.5 42.5t-47.5 122.5l-77 -9q2 -119 67.5 -181t176.5 -62z" />
    <glyph glyph-name="T" unicode="T" horiz-adv-x="478" 
d="M283 640h187v84h-459v-84h186v-648h86v648z" />
    <glyph glyph-name="U" unicode="U" horiz-adv-x="565" 
d="M282 -20q74 0 119 29t69 75t31.5 103.5t7.5 114.5v422h-86v-431q0 -45 -3.5 -86t-18.5 -72t-44.5 -49.5t-81.5 -18.5q-48 0 -75.5 20.5t-41 52.5t-16.5 72.5t-3 80.5v431h-85v-422q0 -59 7 -116.5t31 -103t69 -74t121 -28.5z" />
    <glyph glyph-name="V" unicode="V" horiz-adv-x="521" 
d="M301 -8l226 732h-90l-154 -525q-7 -23 -13 -45l-12 -45l-10.5 44t-11.5 43l-150 528h-94l224 -732h85z" />
    <glyph glyph-name="W" unicode="W" horiz-adv-x="738" 
d="M582 -8l159 732h-89l-57 -286.5t-53 -283.5q-20 143 -54 284l-67 286h-100l-66 -291.5t-62 -286.5q-22 144 -50 287l-55 291h-90l154 -732h87l121 548q3 12 5 23.5l4 22.5l65 -297l64 -297h84z" />
    <glyph glyph-name="X" unicode="X" horiz-adv-x="522" 
d="M422 -8h109l-219 386l203 346h-95l-81 -132t-75 -132q-31 66 -70 131.5l-76 132.5h-103l198 -351l-224 -381h107l84.5 147.5t79.5 147.5q37 -75 78.5 -147.5z" />
    <glyph glyph-name="Y" unicode="Y" horiz-adv-x="521" 
d="M299 302l229 422h-99l-87.5 -165t-81.5 -164q-38 84 -81 164l-87 165h-103l223 -422v-310h87v310z" />
    <glyph glyph-name="Z" unicode="Z" horiz-adv-x="478" 
d="M8 -8h458v87h-364l64 92.5l66.5 101l66 103.5l61.5 98.5l54 87l43 68.5v94h-416v-85h320q-17 -21 -32 -43.5l-30 -45.5l-291 -461v-97z" />
    <glyph glyph-name="bracketleft" unicode="[" horiz-adv-x="217" 
d="M48 -207h164v72h-83v787h83v72h-164v-931z" />
    <glyph glyph-name="backslash" unicode="\" horiz-adv-x="216" 
d="M158 -20h68l-167 756h-69z" />
    <glyph glyph-name="bracketright" unicode="]" horiz-adv-x="217" 
d="M8 -207h164v931h-164v-72h83v-787h-83v-72z" />
    <glyph glyph-name="asciicircum" unicode="^" horiz-adv-x="367" 
d="M267 347h84l-136 389h-63l-136 -392h86l81 259z" />
    <glyph glyph-name="underscore" unicode="_" 
d="M-19 -236h470v65h-470v-65z" />
    <glyph glyph-name="grave" unicode="`" horiz-adv-x="261" 
d="M110 592h73l-52 136h-109z" />
    <glyph glyph-name="a" unicode="a" 
d="M327 -8h86q-14 33 -19.5 77.5t-7 91.5t-0.5 93.5t1 82.5q0 44 -4.5 81.5t-21 65.5t-49 43.5t-87.5 15.5q-79 0 -126.5 -36.5t-61.5 -122.5l76 -14q5 26 12.5 44.5t18.5 30.5t28 17.5t42 5.5q54 0 72.5 -32.5t18.5 -83.5v-21q-35 -14 -74.5 -19t-77 -14t-69 -28.5
t-49.5 -62.5q-8 -17 -11 -35.5t-3 -36.5q0 -69 38 -111.5t109 -42.5q46 0 80 17t64 46q2 -12 5.5 -25t9.5 -27zM305 253v-23q0 -32 -5.5 -64t-19.5 -57t-37.5 -40.5t-60.5 -15.5q-36 0 -55.5 22.5t-19.5 58.5q0 39 19 56.5t51 26.5t64.5 15t63.5 21z" />
    <glyph glyph-name="b" unicode="b" 
d="M226 -19q55 0 91 30t56.5 74.5t28.5 94.5t8 90t-8.5 87.5t-29 88.5t-55.5 69t-88 28q-34 0 -59 -15t-45 -39v235h-81v-732h76v47q18 -26 44.5 -42t61.5 -16zM226 469q34 0 54.5 -23t31.5 -55.5t14 -67.5t3 -60q0 -27 -4.5 -63t-16 -68.5t-32 -54.5t-53.5 -22
q-37 0 -57.5 23.5t-30.5 56.5t-12.5 69t-2.5 62q0 27 4.5 62.5t16.5 66.5t32.5 52.5t52.5 21.5z" />
    <glyph glyph-name="c" unicode="c" horiz-adv-x="392" 
d="M216 -19q41 0 71.5 15.5t52.5 41.5t34.5 61t17.5 73l-78 11q-3 -26 -9.5 -49t-17.5 -41t-28.5 -28.5t-41.5 -10.5q-36 0 -57 21.5t-32 53.5t-14.5 68t-3.5 66t4 66t15.5 67.5t33 52.5t57.5 21q19 0 34 -8.5t25.5 -23.5t17.5 -34t11 -40l76 14q-6 37 -19 67t-34 52
t-49.5 34t-65.5 12q-58 0 -94.5 -28t-57.5 -70.5t-29 -92.5t-8 -93t8 -91.5t29.5 -90t58 -69t93.5 -27.5z" />
    <glyph glyph-name="d" unicode="d" 
d="M308 -8h78v732h-80v-236q-19 25 -45.5 40t-60.5 15q-55 0 -90 -29t-55.5 -72t-28 -92t-7.5 -89q0 -39 8.5 -88t29.5 -91.5t56.5 -71.5t88.5 -29q35 0 61 14.5t45 40.5v-44zM204 469q36 0 57.5 -24t32.5 -58t14 -71.5t3 -63.5q0 -27 -4 -61.5t-15.5 -64.5t-31.5 -51
t-52 -21q-33 0 -54 22t-32.5 54t-16 68t-4.5 63q0 25 3 60.5t13.5 68.5t31 56t55.5 23z" />
    <glyph glyph-name="e" unicode="e" horiz-adv-x="436" 
d="M100 237h310v31q0 43 -9 91.5t-31 89t-59 67.5t-93 27q-58 0 -96 -28t-60.5 -70.5t-31.5 -93t-9 -94.5q0 -46 9 -94.5t31.5 -89t60.5 -66.5t97 -26q77 0 122 45.5t63 122.5l-82 11q-14 -45 -37.5 -75t-67.5 -30q-32 0 -53.5 17.5t-35 44.5t-20 59t-8.5 61zM218 468
q28 0 48 -14.5t32.5 -37t19 -50t8.5 -52.5h-220q2 26 9 53t20.5 49.5t34 37t48.5 14.5z" />
    <glyph glyph-name="f" unicode="f" horiz-adv-x="212" 
d="M237 641l11 85q-40 10 -71 10q-47 0 -71 -20t-34.5 -50.5t-11 -66.5t-0.5 -68h-61v-68h61v-471h81v471h79v68h-78q0 8 -0.5 16t-0.5 17q0 13 0.5 27.5t5 27t15 20.5t28.5 8q10 0 20.5 -1t26.5 -5z" />
    <glyph glyph-name="g" unicode="g" 
d="M199 -218q67 0 105 27t57 69.5t24 93.5t5 99v460h-75v-47q-20 26 -48 42.5t-64 16.5q-54 0 -90 -28t-57.5 -70t-30 -90.5t-8.5 -89.5t9 -88.5t30.5 -88.5t57 -68.5t88.5 -27.5q33 0 59 14t46 37q0 -29 -2 -62t-12 -61t-32 -46t-63 -18q-38 0 -60 18t-27 60l-79 8v-14
q0 -38 13.5 -65.5t36.5 -45.5t53 -26.5t64 -8.5zM206 469q33 0 54 -21t33 -52t16.5 -65.5t4.5 -62.5q0 -29 -4 -64t-15.5 -65.5t-32.5 -51.5t-55 -21q-35 0 -55.5 21.5t-32 52.5t-15 66.5t-3.5 64.5q0 27 4.5 61.5t16 65t32 51t52.5 20.5z" />
    <glyph glyph-name="h" unicode="h" 
d="M308 -8h81v340q0 36 -5 73.5t-21 68t-45.5 50t-78.5 19.5q-36 0 -64.5 -16t-49.5 -42v239h-81v-732h83v303q0 21 1 43t6 42t14 37t26 30q25 19 54 19q25 0 40.5 -11t24.5 -28.5t12 -39.5t3 -45v-350z" />
    <glyph glyph-name="i" unicode="i" horiz-adv-x="174" 
d="M46 628h81v96h-81v-96zM46 -8h81v539h-81v-539z" />
    <glyph glyph-name="j" unicode="j" horiz-adv-x="169" 
d="M42 627h81v97h-81v-97zM16 -218q39 0 60 19.5t31.5 48t12.5 62t2 61.5v558h-80v-568q0 -10 0.5 -27.5t-2 -34t-10 -28.5t-23.5 -12q-8 0 -16 2t-22 6l-14 -74q18 -8 32.5 -10.5t28.5 -2.5z" />
    <glyph glyph-name="k" unicode="k" horiz-adv-x="391" 
d="M297 -8h104l-181 344l156 195h-95l-157 -204v397h-81v-732h83v222l36 44z" />
    <glyph glyph-name="l" unicode="l" horiz-adv-x="174" 
d="M44 -8h81v732h-81v-732z" />
    <glyph glyph-name="m" unicode="m" horiz-adv-x="651" 
d="M529 -8h81v367q0 32 -5.5 64.5t-20 59t-40.5 43.5t-67 17q-44 0 -74 -23t-50 -56q-16 38 -45.5 58.5t-73.5 20.5q-38 0 -67.5 -18.5t-49.5 -47.5v54h-74v-539h83v288q0 25 2 57t11 60.5t28 48t53 19.5q21 0 34 -10.5t20 -27t9 -36.5t2 -40v-359h84v321q0 25 4 52.5
t14.5 49.5t28.5 36.5t46 14.5q25 0 38.5 -13t20 -32t7.5 -41t1 -40v-348z" />
    <glyph glyph-name="n" unicode="n" 
d="M306 -8h83v338q0 36 -4.5 74t-20 69t-45 50.5t-78.5 19.5q-42 0 -72 -18t-51 -48v54h-74v-539h83v303q0 28 3.5 58t14 55t30.5 41t53 16q26 0 41.5 -12.5t23.5 -32.5t10.5 -44t2.5 -47v-337z" />
    <glyph glyph-name="o" unicode="o" 
d="M319 14q31 22 49.5 52t28.5 63.5t13.5 69.5t3.5 70q0 45 -9.5 93t-32.5 88.5t-61 66.5t-95 26q-59 0 -97 -27t-60.5 -68t-31.5 -91t-9 -95t9 -95t31.5 -91t60.5 -68t97 -27q56 0 103 33zM217 469q34 0 56.5 -21t35 -51.5t17.5 -66t5 -65.5t-4.5 -66.5t-17 -68.5
t-34.5 -53.5t-58 -21.5t-58 21t-35 52.5t-17.5 67.5t-4.5 66t4.5 66t17.5 67.5t35 52.5t58 21z" />
    <glyph glyph-name="p" unicode="p" 
d="M225 -19q54 0 90 29.5t57 73t30 93t9 89.5t-8 88t-28.5 90t-55.5 70.5t-89 28.5q-38 0 -64 -16t-46 -43v47h-76v-738h82v237q18 -23 43.5 -36t55.5 -13zM226 471q34 0 54.5 -23t31 -55t14 -67.5t3.5 -59.5q0 -26 -3 -62t-14 -69.5t-32 -57t-57 -23.5q-33 0 -53 21.5
t-31.5 52.5t-15.5 66.5t-4 62.5t4.5 64t16.5 70t33 56.5t53 23.5z" />
    <glyph glyph-name="q" unicode="q" 
d="M319 14q31 22 49.5 52t28.5 63.5t13.5 69.5t3.5 70q0 45 -9.5 93t-32.5 88.5t-61 66.5t-95 26q-59 0 -97 -27t-60.5 -68t-31.5 -91t-9 -95t9 -95t31.5 -91t60.5 -68t97 -27q56 0 103 33zM371 -184l41 78l-201 103l-39 -79zM217 469q34 0 56.5 -21t35 -51.5t17.5 -66
t5 -65.5t-4.5 -66.5t-17 -68.5t-34.5 -53.5t-58 -21.5t-58 21t-35 52.5t-17.5 67.5t-4.5 66t4.5 66t17.5 67.5t35 52.5t58 21z" />
    <glyph glyph-name="r" unicode="r" horiz-adv-x="256" 
d="M251 425l24 83q-19 16 -38 25.5t-41 9.5q-12 0 -23 -6.5t-21 -16t-18.5 -21t-14.5 -21.5v53h-76v-539h82v291q0 18 1 46.5t8 55.5t21.5 46.5t40.5 19.5q13 0 25.5 -6t29.5 -20z" />
    <glyph glyph-name="s" unicode="s" horiz-adv-x="391" 
d="M197 -19q37 0 68 12.5t53 35t34 53.5t12 68q0 39 -12 65.5t-31.5 44t-43.5 28t-49 18.5q-12 4 -24.5 7.5t-23.5 7.5q-14 4 -27.5 10t-24.5 14.5t-18 21t-7 30.5q0 38 23 55t59 17q74 0 84 -85l76 12q-11 78 -51.5 112.5t-113.5 34.5q-35 0 -63 -11.5t-48 -32.5t-31 -49.5
t-11 -62.5q0 -39 12 -65t30.5 -43t42.5 -28t48 -19q12 -4 24 -7.5t23 -7.5q14 -5 27.5 -11t24 -14.5t17 -20.5t6.5 -30q0 -41 -23.5 -63.5t-64.5 -22.5q-47 0 -70 27t-30 80l-76 -17q13 -84 55.5 -124t123.5 -40z" />
    <glyph glyph-name="t" unicode="t" horiz-adv-x="217" 
d="M160 -14q14 0 28 2t31 7l-11 85q-14 -3 -22 -4t-16 -1q-13 0 -19 5.5t-9 13.5q-3 11 -3 23v23v326h70v65h-70v128l-81 -3v-125h-50v-68h52v-304q0 -28 0.5 -58.5t9.5 -56t29.5 -42t60.5 -16.5z" />
    <glyph glyph-name="u" unicode="u" horiz-adv-x="436" 
d="M310 -8h76v539h-81v-298q0 -29 -3.5 -60t-14.5 -56.5t-31 -42.5t-54 -17q-33 0 -49 17.5t-23 43t-7 54.5v51v308h-80v-340q0 -26 1.5 -53.5t8.5 -53.5t22.5 -48t42.5 -37q17 -10 35 -14t36 -4q40 0 70 18.5t51 47.5v-55z" />
    <glyph glyph-name="v" unicode="v" horiz-adv-x="391" 
d="M233 -8l159 539h-84l-59 -199.5t-54 -196.5q-24 99 -52.5 196.5l-57.5 199.5h-86l161 -539h73z" />
    <glyph glyph-name="w" unicode="w" horiz-adv-x="565" 
d="M438 -8l132 539h-80l-44.5 -192.5l-43.5 -187.5l-39 188l-39 192h-81l-43.5 -193.5t-39.5 -190.5l-84 384h-84l129 -539h86l73 359q15 -89 34.5 -178l39.5 -181h84z" />
    <glyph glyph-name="x" unicode="x" horiz-adv-x="392" 
d="M297 -8h102l-158 284l147 255h-97l-49.5 -89.5l-47.5 -85.5q-21 44 -43.5 86.5l-45.5 88.5h-101l143 -260l-155 -279h102l102 196l50.5 -96.5z" />
    <glyph glyph-name="y" unicode="y" horiz-adv-x="391" 
d="M237 -4l157 535h-82l-90 -310l-11.5 -42l-10.5 -42q-24 98 -52.5 195.5l-56.5 198.5h-87l158 -532q-5 -17 -9.5 -41.5t-13 -47t-22.5 -39t-38 -16.5q-9 0 -20 2.5t-28 7.5l-1 -67q17 -9 32.5 -11.5t29.5 -2.5q36 0 60.5 23t40.5 56t26 69.5z" />
    <glyph glyph-name="z" unicode="z" horiz-adv-x="391" 
d="M7 -8h376v74l-281 -2q71 97 136.5 198l131.5 201v68h-346v-70h195h51l-263 -387v-82z" />
    <glyph glyph-name="braceleft" unicode="{" horiz-adv-x="261" 
d="M219 -218h30v79q-6 0 -15 -0.5t-18 0.5t-17.5 3t-12.5 7q-11 12 -13.5 40t-2 64t1 77t-5.5 80t-21 72.5t-46 54.5q34 26 49.5 64t20 81t2.5 86.5t-2 81.5q0 52 14 72q9 14 30 15t36 1v76h-40t-39 -6q-30 -12 -45.5 -37.5t-22.5 -58.5q-8 -36 -8 -73v-73q0 -39 -1.5 -73.5
t-9 -60t-23.5 -40t-44 -15.5v-80q28 -1 43.5 -15.5t23 -39.5t9 -58t1.5 -72q0 -18 -0.5 -36.5t0.5 -37.5q1 -22 3.5 -47t9.5 -48.5t20.5 -43t36.5 -30.5q14 -7 28.5 -8t27.5 -1z" />
    <glyph glyph-name="bar" unicode="|" horiz-adv-x="204" 
d="M66 -218h72v954h-72v-954z" />
    <glyph glyph-name="braceright" unicode="}" horiz-adv-x="261" 
d="M168 29q0 39 1 73t8.5 59t23 40t43.5 16v84q-28 1 -43.5 15t-23 39t-8.5 58t-1 71v37q0 19 -1 38q-1 22 -3.5 47t-9.5 48.5t-20.5 42.5t-36.5 30q-13 6 -28 7.5t-28 1.5h-29v-76q13 0 33 -0.5t30 -10.5q8 -9 11.5 -26t4.5 -42q0 -25 -1 -53.5t-1 -59.5q0 -29 2.5 -58.5
t10.5 -57t22.5 -52t38.5 -42.5q-35 -23 -50.5 -61t-20 -81.5t-3 -88t1.5 -81.5q-1 -26 -3.5 -44t-10.5 -28q-10 -14 -30 -15t-35 -1v-76h39q23 0 40 6q31 12 46.5 37.5t22.5 58.5q8 35 8.5 72t-0.5 73z" />
    <glyph glyph-name="asciitilde" unicode="~" horiz-adv-x="458" 
d="M317 568q35 0 68.5 14.5t59.5 42.5l-19 105q-24 -32 -50 -51.5t-52 -19.5q-20 0 -40.5 10l-43 21.5t-47 21.5t-52.5 10q-32 0 -68 -13t-60 -42l19 -100q28 32 50.5 48t52.5 16q22 0 43 -10t42.5 -21.5t45 -21.5t51.5 -10z" />
    <glyph glyph-name="quotesinglbase" unicode="&#x201a;" horiz-adv-x="174" 
d="M53 -139q25 13 39.5 30.5t22 37t9.5 40.5t2 42v81h-86v-100h36q-2 -26 -9.5 -50.5t-32.5 -39.5z" />
    <glyph glyph-name="florin" unicode="&#x192;" 
d="M407 638l14 77q-23 8 -45.5 15t-43.5 7q-42 0 -65 -22t-35 -54t-16 -68.5l-7 -65.5h-76l-10 -70h78l-69 -518l-2.5 -22.5t-6 -25.5t-12.5 -20.5t-21 -8.5q-14 0 -30 3.5t-36 8.5l-13 -76q26 -8 48 -12t44 -4q31 0 50 12.5t30 32t16.5 43.5t8.5 46l74 544h79l9 67h-78
l7 46q1 10 3 23.5t6 26.5t11.5 22t21.5 9t30 -4.5t36 -11.5z" />
    <glyph glyph-name="quotedblbase" unicode="&#x201e;" horiz-adv-x="261" 
d="M158 -139q25 13 39.5 30.5t22 37t9.5 40.5t2 42v81h-86v-100h36q-2 -26 -9.5 -51t-32.5 -39zM38 -139q25 13 39.5 30.5t22 37t9.5 40.5t2 42v81h-85v-100h35q-2 -26 -9.5 -51t-32.5 -39z" />
    <glyph glyph-name="ellipsis" unicode="&#x2026;" horiz-adv-x="782" 
d="M610 -8h90v99h-90v-99zM346 -8h90v99h-90v-99zM83 -8h90v99h-90v-99z" />
    <glyph glyph-name="dagger" unicode="&#x2020;" 
d="M255 521h154v77h-154v207h-81v-207h-154v-77h154v-592h81v592z" />
    <glyph glyph-name="daggerdbl" unicode="&#x2021;" 
d="M257 4h154v78h-154v371h154v78h-154v183h-81v-183h-155v-78h155v-371h-155v-78h155v-173h81v173z" />
    <glyph glyph-name="circumflex" unicode="&#x2c6;" horiz-adv-x="256" 
d="M157 593h95l-87 135h-77l-83 -135h94l30 57z" />
    <glyph glyph-name="perthousand" unicode="&#x2030;" horiz-adv-x="782" 
d="M642 -34q40 0 63 20.5t35 50.5t15 64t3 61q0 25 -4 58t-16.5 61.5t-35.5 48.5t-61 20q-39 0 -62 -20t-35 -49.5t-15.5 -62.5t-3.5 -58q0 -26 3.5 -59.5t16 -63.5t35.5 -50.5t62 -20.5zM121 346q40 0 63 21t34.5 51t14.5 64t3 60t-4 58.5t-16 61.5t-35 48.5t-61 19.5
q-39 0 -61.5 -20t-34.5 -49.5t-15.5 -62t-3.5 -57.5q0 -26 3.5 -59.5t15.5 -63.5t35 -51t62 -21zM177 -28l234 764h-64l-235 -764h65zM401 -34q40 0 63 21t35 51t15 64t3 60t-4 58.5t-16.5 61.5t-35.5 48.5t-61 19.5q-39 0 -62 -20t-35 -49t-15.5 -62t-3.5 -59t3.5 -59.5
t16 -63.5t35.5 -50.5t62 -20.5zM642 286q19 0 29 -15.5t14 -36.5t4 -43v-34q0 -12 -0.5 -33.5t-4.5 -42.5t-13.5 -36.5t-26.5 -15.5q-20 0 -30.5 15t-15 35.5t-4.5 41.5v35t0.5 35t4.5 43t14 36.5t29 15.5zM121 666q19 0 29 -15.5t14 -36.5t4 -43v-34t-0.5 -33.5t-4.5 -42.5
t-13.5 -36.5t-26.5 -15.5q-19 0 -29 15t-14.5 35.5t-5 42t-0.5 34.5v35t4 43t14 36.5t29 15.5zM402 286q19 0 28.5 -15.5t13.5 -36.5t4.5 -43t0.5 -34t-0.5 -33.5t-5 -42.5t-13.5 -36.5t-27 -15.5q-19 0 -29 15t-14.5 35.5t-5 42t-0.5 34.5v35t4.5 43t14 36.5t29.5 15.5z
" />
    <glyph glyph-name="Scaron" unicode="&#x160;" horiz-adv-x="521" 
d="M301 771l84 131h-93l-40 -79l-41 79h-91l78 -131h103zM273 -20q48 0 87 17t67.5 46t44 69t15.5 87q0 54 -16 90t-42 60t-59 38.5t-67 25.5l-33.5 10l-31.5 10q-20 7 -39.5 15t-34.5 20.5t-24.5 30t-9.5 43.5q0 56 35 81.5t88 25.5q64 0 95 -34t37 -103l81 9
q-3 103 -61.5 159t-154.5 56q-45 0 -82 -14.5t-64 -41.5t-41.5 -64.5t-14.5 -82.5q0 -51 16 -85t42.5 -56.5t59.5 -36t66 -23.5l33 -10t32 -11q22 -8 41.5 -17.5t34 -23.5t23 -33.5t8.5 -46.5q0 -60 -38 -91.5t-97 -31.5q-76 0 -115.5 42.5t-47.5 122.5l-77 -9
q2 -119 67.5 -181t176.5 -62z" />
    <glyph glyph-name="guilsinglleft" unicode="&#x2039;" horiz-adv-x="260" 
d="M148 36h72l-101 222l100 220h-69l-121 -222z" />
    <glyph glyph-name="OE" unicode="&#x152;" horiz-adv-x="782" 
d="M421 -8h345v84h-262v253h231v83h-231v228h250v84h-332v-75q-24 39 -59.5 63t-86.5 24q-50 0 -86.5 -17.5t-63 -47.5t-43 -68.5t-26.5 -80.5t-13.5 -84t-3.5 -79q0 -36 4 -78t13.5 -84t26.5 -81.5t43 -69.5t62.5 -48t85.5 -18q51 0 86.5 24.5t59.5 62.5v-75zM374 588
q14 -22 23 -50t13.5 -58t6 -60.5t1.5 -56.5q0 -27 -1.5 -59t-6 -64t-13.5 -62t-23 -52q-18 -29 -42 -49t-59 -20q-34 0 -58.5 20t-42.5 49q-14 22 -22.5 50t-13.5 58t-6.5 60t-1.5 56q0 33 2 71.5t9.5 76.5t22 71.5t39.5 55.5q16 14 34 23t38 9q34 0 58.5 -20t42.5 -49z" />
    <glyph glyph-name="quoteleft" unicode="&#x2018;" horiz-adv-x="174" 
d="M93 598q2 28 10 53.5t36 41.5l-22 40q-26 -14 -41 -31.5t-22.5 -37.5t-9.5 -42t-2 -44v-84h88v104h-37z" />
    <glyph glyph-name="quoteright" unicode="&#x2019;" horiz-adv-x="174" 
d="M54 483q25 15 40 33.5t22 39.5t9 43.5t2 44.5v87h-84v-101h34q-2 -29 -10 -58.5t-34 -46.5z" />
    <glyph glyph-name="quotedblleft" unicode="&#x201c;" horiz-adv-x="261" 
d="M195 598q2 28 10 53t34 42l-20 40q-26 -14 -41 -31.5t-22.5 -37.5t-9.5 -42t-2 -44v-84h87v104h-36zM75 598q2 28 10 53t35 42l-20 40q-26 -14 -41 -31.5t-23 -37.5t-10 -42t-2 -44v-84h88v104h-37z" />
    <glyph glyph-name="quotedblright" unicode="&#x201d;" horiz-adv-x="261" 
d="M159 483q25 15 40 33.5t22 39.5t9 43.5t2 44.5v87h-84v-101h34q-2 -29 -10 -58.5t-34 -46.5zM38 483q26 15 40.5 33.5t22 39.5t9.5 43.5t2 44.5v87h-84v-101h34q-2 -29 -9.5 -58.5t-33.5 -46.5z" />
    <glyph glyph-name="bullet" unicode="&#x2022;" horiz-adv-x="274" 
d="M128 288q20 0 38.5 7.5t32 20.5t21.5 31t8 39t-8 39t-21.5 30.5t-32 20t-38.5 7.5q-41 0 -70 -27.5t-29 -69.5q0 -21 8 -39t21.5 -31t31.5 -20.5t38 -7.5z" />
    <glyph glyph-name="endash" unicode="&#x2013;" 
d="M-9 224h450v70h-450v-70z" />
    <glyph glyph-name="emdash" unicode="&#x2014;" horiz-adv-x="785" 
d="M-8 224h801v70h-801v-70z" />
    <glyph glyph-name="tilde" unicode="&#x2dc;" horiz-adv-x="260" 
d="M180 596q25 0 41 11t25 28.5t13 38.5t4 42h-62q-1 -17 -3 -29.5t-16 -12.5q-12 0 -23.5 6.5t-23.5 14t-25 14t-28 6.5q-23 0 -39.5 -10.5t-27 -27.5t-15 -38.5t-4.5 -42.5h62q0 41 21 41q9 0 20.5 -6.5l24 -14t27 -14t29.5 -6.5z" />
    <glyph glyph-name="trademark" unicode="&#x2122;" horiz-adv-x="782" 
d="M626 331h64v393h-88l-71 -294l-74 294h-89v-397h63v265l66 -265h68l61 252v-248zM243 662h101v62h-267v-62h101v-336h65v336z" />
    <glyph glyph-name="scaron" unicode="&#x161;" horiz-adv-x="391" 
d="M244 597l84 131h-93l-40 -79l-41 79h-91l78 -131h103zM197 -19q37 0 68 12.5t53 35t34 53.5t12 68q0 39 -12 65.5t-31.5 44t-43.5 28t-49 18.5q-12 4 -24.5 7.5t-23.5 7.5q-14 4 -27.5 10t-24.5 14.5t-18 21t-7 30.5q0 38 23 55t59 17q74 0 84 -85l76 12
q-11 78 -51.5 112.5t-113.5 34.5q-35 0 -63 -11.5t-48 -32.5t-31 -49.5t-11 -62.5q0 -39 12 -65t30.5 -43t42.5 -28t48 -19q12 -4 24 -7.5t23 -7.5q14 -5 27.5 -11t24 -14.5t17 -20.5t6.5 -30q0 -41 -23.5 -63.5t-64.5 -22.5q-47 0 -70 27t-30 80l-76 -17q13 -84 55.5 -124
t123.5 -40z" />
    <glyph glyph-name="guilsinglright" unicode="&#x203a;" horiz-adv-x="260" 
d="M97 38l115 223l-115 217h-70l100 -220l-100 -220h70z" />
    <glyph glyph-name="oe" unicode="&#x153;" horiz-adv-x="738" 
d="M416 238h302q-2 46 -11.5 99.5t-31.5 99t-59.5 76t-95.5 30.5q-49 0 -85 -26.5t-59 -64.5q-23 42 -62.5 66.5t-88.5 24.5q-60 0 -99 -27.5t-61.5 -70t-31.5 -93.5t-9 -97q0 -45 9.5 -93.5t32.5 -88.5t61 -66t96 -26q51 0 88.5 24t63.5 62q25 -42 65 -64t89 -22
q77 0 121 47t61 123l-79 14q-11 -47 -34.5 -79t-66.5 -32q-32 0 -53 18t-34.5 45.5t-20 59.5t-7.5 61zM531 468q28 0 48 -14.5t32.5 -37t19 -50t8.5 -53.5h-219q2 26 9 53.5t20.5 50t33.5 37t48 14.5zM221 468q35 0 57.5 -21t35 -51.5t17.5 -66t5 -65.5t-5 -66t-18 -68
t-35.5 -53.5t-56.5 -21.5q-36 0 -58 21t-34.5 52.5t-17 68t-4.5 66.5q0 29 5 64.5t18 67t35 52.5t56 21z" />
    <glyph glyph-name="Ydieresis" unicode="&#x178;" horiz-adv-x="521" 
d="M290 768h84v100h-84v-100zM146 768h84v100h-84v-100zM299 302l229 422h-99l-87.5 -165t-81.5 -164q-38 84 -81 164l-87 165h-103l223 -422v-310h87v310z" />
    <glyph glyph-name="exclamdown" unicode="&#xa1;" horiz-adv-x="260" 
d="M85 427h92v100h-92v-100zM82 -205h98v168q0 35 -2.5 60t-4.5 60l-14 246h-58l-12 -246q-1 -17 -2 -31.5l-2 -28l-2 -27.5t-1 -31v-170z" />
    <glyph glyph-name="cent" unicode="&#xa2;" 
d="M222 -22q40 0 71 16.5t53 44t35.5 63t19.5 72.5l-79 11q-3 -26 -10.5 -49.5t-19.5 -41.5t-29.5 -29t-41.5 -11q-4 0 -7 0.5t-7 1.5l83 368q9 -12 14.5 -27t9.5 -34l77 15q-8 47 -25.5 81t-55.5 56l43 182l-55 21l-41 -178q-17 3 -33 3q-26 0 -50.5 -9t-45.5 -23
q-29 -21 -47 -50.5t-28 -63.5t-13.5 -69t-3.5 -66t4.5 -66.5t15.5 -70t30 -64.5t49 -49l-43 -191l54 -21l44 183q17 -5 32 -5zM228 471h10l-86 -374q-11 16 -18 37.5t-10.5 44t-4.5 45.5t-1 42q0 29 4 65t16 67t33.5 52t56.5 21z" />
    <glyph glyph-name="sterling" unicode="&#xa3;" 
d="M317 -20q27 0 51.5 10.5t50.5 24.5l-22 82q-23 -14 -43 -22t-38 -8q-21 0 -41.5 5.5t-40.5 11.5t-40.5 11.5t-42.5 5.5q-10 0 -19 -1t-18 -3q27 42 44 89t17 98q0 16 -5 38h106v74h-120q-8 35 -15 71.5t-7 73.5q0 21 6 42.5t17.5 38.5t28.5 28t40 11q22 0 39 -10t29 -27
t19 -39t10 -46l80 13q-5 39 -18 72.5t-34.5 58.5t-52.5 39t-71 14q-47 0 -80.5 -19t-55 -50t-32 -70t-10.5 -79q0 -32 5 -62.5t12 -61.5h-56v-71h75q6 -27 6 -55q0 -56 -20.5 -109t-67.5 -88l29 -89q29 23 59 35t59 12q22 0 42.5 -7.5t40.5 -17t40.5 -17t43.5 -7.5z" />
    <glyph glyph-name="currency" unicode="&#xa4;" horiz-adv-x="432" 
d="M410 598l34 76q-30 26 -69.5 44t-74.5 18q-60 0 -105.5 -23.5t-78 -62t-52.5 -88t-29 -101.5h-42l-11 -71h48q-1 -16 -0.5 -31.5t1.5 -31.5h-40l-10 -66h58q9 -54 26.5 -104.5t47.5 -90t75.5 -63t110.5 -23.5q29 0 66.5 12t66.5 26l-23 83q-3 -2 -16 -7.5t-30.5 -11.5
t-36.5 -11t-35 -5q-39 0 -68 17t-49 44.5t-31.5 62.5t-17.5 70h231l10 64h-247q-1 12 -1 24v25v16h260l10 69h-265q4 36 18 71t36 62t52.5 44t68.5 17q58 0 112 -54z" />
    <glyph glyph-name="currency" unicode="&#x20ac;" horiz-adv-x="432" 
d="M410 598l34 76q-30 26 -69.5 44t-74.5 18q-60 0 -105.5 -23.5t-78 -62t-52.5 -88t-29 -101.5h-42l-11 -71h48q-1 -16 -0.5 -31.5t1.5 -31.5h-40l-10 -66h58q9 -54 26.5 -104.5t47.5 -90t75.5 -63t110.5 -23.5q29 0 66.5 12t66.5 26l-23 83q-3 -2 -16 -7.5t-30.5 -11.5
t-36.5 -11t-35 -5q-39 0 -68 17t-49 44.5t-31.5 62.5t-17.5 70h231l10 64h-247q-1 12 -1 24v25v16h260l10 69h-265q4 36 18 71t36 62t52.5 44t68.5 17q58 0 112 -54z" />
    <glyph glyph-name="yen" unicode="&#xa5;" horiz-adv-x="434" 
d="M286 374l157 350h-93l-107 -252l-27 -63q-6 17 -13 32.5l-14 31.5l-112 251h-89l159 -356h-130v-71h160v-70h-160v-68h160v-167h81v167h158v68h-158v70h159v77h-131z" />
    <glyph glyph-name="brokenbar" unicode="&#xa6;" horiz-adv-x="204" 
d="M66 351h72v385h-72v-385zM66 -218h72v385h-72v-385z" />
    <glyph glyph-name="section" unicode="&#xa7;" 
d="M326 87q41 24 60 56t19 83q0 42 -18 76.5t-46 63.5t-60.5 54t-60.5 49l-27 24t-26 27.5t-20 31.5t-8 35q0 31 20.5 53t50.5 22q21 0 34.5 -8.5t22 -22.5t13 -34t7.5 -42l84 10q-8 78 -47 124.5t-118 46.5q-35 0 -61.5 -14t-45 -37t-28 -52.5t-9.5 -60.5q0 -36 11.5 -64.5
t31.5 -55.5q-40 -19 -60.5 -57t-20.5 -81q0 -38 11.5 -66.5t30 -51.5t42.5 -42.5l50 -40.5l42 -34t46.5 -42.5t38 -47t15.5 -48.5q0 -36 -21 -60t-56 -24q-23 0 -39 8.5t-26.5 23.5t-17 35.5t-11.5 45.5l-78 -13q8 -81 50.5 -128t121.5 -47q36 0 65.5 13.5t49.5 37t31 54
t11 64.5q0 40 -14 73.5t-40 62.5zM256 320q30 -27 50.5 -54.5t20.5 -55.5q0 -25 -12.5 -46.5t-32.5 -36.5q-20 19 -42 35.5l-44 33.5l-33 25t-31.5 29t-23.5 34t-9 41q0 28 12.5 48.5t34.5 37.5q26 -24 54.5 -46t55.5 -45z" />
    <glyph glyph-name="dieresis" unicode="&#xa8;" horiz-adv-x="260" 
d="M160 629h84v99h-84v-99zM16 629h85v99h-85v-99z" />
    <glyph glyph-name="copyright" unicode="&#xa9;" horiz-adv-x="580" 
d="M291 -17q73 0 128.5 35.5t93 90.5t56.5 121.5t19 128.5q0 63 -19 129.5t-56 121.5t-93 90.5t-129 35.5q-74 0 -129.5 -35.5t-93 -90.5t-56.5 -121.5t-19 -129.5q0 -62 19 -128.5t56.5 -121.5t93 -90.5t129.5 -35.5zM291 669q58 0 102 -29t74 -74t45.5 -100t15.5 -107
t-15.5 -107t-45.5 -100t-74.5 -73.5t-101.5 -28.5q-58 0 -102 28.5t-74 73.5t-45.5 100t-15.5 107t15 107t45 100t74.5 74t102.5 29zM290 148q61 0 97.5 38.5t49.5 98.5l-58 22q-8 -43 -31 -71t-60 -28q-27 0 -44.5 14t-28 36t-14.5 48.5t-4 50.5q0 25 4.5 52t15 49.5t29 37
t45.5 14.5q30 0 50.5 -19.5t31.5 -54.5l56 16q-14 55 -49.5 85.5t-87.5 30.5q-46 0 -76.5 -19.5t-49 -49.5t-26 -67.5t-7.5 -73.5q0 -35 8 -72t26 -68t48 -50.5t75 -19.5z" />
    <glyph glyph-name="ordfeminine" unicode="&#xaa;" horiz-adv-x="290" 
d="M211 372h75q-11 20 -15.5 51t-5.5 65.5t0.5 67.5t1.5 56q0 62 -28 93t-92 31q-21 0 -41.5 -5.5t-37.5 -17.5t-28.5 -31t-14.5 -46l63 -20q4 33 17.5 45.5t39.5 12.5q18 0 28.5 -6t16 -16t7 -24t1.5 -30q-29 -9 -62 -13.5t-60.5 -15t-45.5 -32.5t-18 -65q0 -45 25.5 -77.5
t75.5 -32.5q27 0 49.5 11t41.5 28q1 -6 3 -13.5zM126 515q17 5 36 8t36 8q-1 -19 -4.5 -37.5t-11.5 -33.5t-22 -24t-35 -9q-20 0 -31 11.5t-11 31.5q0 18 11.5 28.5t31.5 16.5z" />
    <glyph glyph-name="guillemotleft" unicode="&#xab;" 
d="M316 37h71l-100 220l100 221h-71l-119 -219zM165 37h73l-100 222l99 219h-69l-123 -223z" />
    <glyph glyph-name="logicalnot" unicode="&#xac;" horiz-adv-x="458" 
d="M344 207h77v296h-385v-82h308v-214z" />
    <glyph glyph-name="registered" unicode="&#xae;" horiz-adv-x="580" 
d="M291 -17q73 0 128.5 35.5t93 90.5t56.5 121.5t19 128.5q0 63 -19 129.5t-56 121.5t-93 90.5t-129 35.5q-74 0 -129.5 -35.5t-93 -90.5t-56.5 -121.5t-19 -129.5q0 -62 19 -128.5t56.5 -121.5t93 -90.5t129.5 -35.5zM291 669q58 0 102 -29t74 -74t45.5 -100t15.5 -107
t-15.5 -107t-45.5 -100t-74.5 -73.5t-101.5 -28.5q-58 0 -102 28.5t-74 73.5t-45.5 100t-15.5 107t15 107t45 100t74.5 74t102.5 29zM355 158h80l-20 43t-24 48.5t-27 46t-29 35.5q37 11 55.5 43t18.5 69q0 34 -11.5 56t-30.5 34t-44.5 16.5t-52.5 4.5h-113v-397h63v166h17
q19 0 34 -12q9 -8 21 -28.5t24 -44l22.5 -46zM271 496q33 0 53 -10.5t20 -45.5q0 -33 -18.5 -45t-51.5 -12h-54v113h51z" />
    <glyph glyph-name="macron" unicode="&#xaf;" horiz-adv-x="261" 
d="M5 599h251v72h-251v-72z" />
    <glyph glyph-name="degree" unicode="&#xb0;" horiz-adv-x="313" 
d="M155 461q33 0 58.5 12.5t43 32.5t26.5 44.5t9 48.5t-9 48t-26.5 44t-43 32.5t-58.5 12.5t-58.5 -12.5t-43 -32.5t-26.5 -44.5t-9 -47.5q0 -24 9 -48.5t26.5 -44.5t43 -32.5t58.5 -12.5zM155 678q18 0 32 -7.5t23.5 -19.5t14 -26t4.5 -27t-4.5 -27t-14 -26t-23.5 -19.5
t-32 -7.5t-31.5 7.5t-23 19t-14 25.5t-4.5 28q0 13 4.5 27.5t14 26t23 19t31.5 7.5z" />
    <glyph glyph-name="plusminus" unicode="&#xb1;" horiz-adv-x="430" 
d="M253 324h154v81h-154v195h-77v-195h-153v-81h153v-197h77v197zM23 -8h384v81h-384v-81z" />
    <glyph glyph-name="twosuperior" unicode="&#xb2;" horiz-adv-x="261" 
d="M1 356h255v65h-141q20 24 44 45t45 44t35 50.5t14 63.5q0 54 -32 81.5t-83 27.5q-52 0 -81 -25t-42 -82l69 -10q8 30 17.5 41.5t34.5 11.5q45 0 45 -46q0 -11 -5.5 -21.5t-13.5 -21t-17 -19.5l-16 -16l-42.5 -40t-39.5 -42.5t-30.5 -49t-15.5 -57.5z" />
    <glyph glyph-name="threesuperior" unicode="&#xb3;" horiz-adv-x="260" 
d="M130 348q52 0 86.5 31t34.5 85q0 64 -53 90q42 26 42 78q0 51 -30.5 76t-78.5 25t-73 -21.5t-42 -71.5l65 -13q9 25 18.5 35t29.5 10q17 0 27 -11.5t10 -30.5q0 -49 -59 -49l-9 -58q13 -3 21 -4t15 -1q24 -2 35 -10.5t11 -37.5q0 -24 -14.5 -42.5t-38.5 -18.5
q-22 0 -33.5 11.5t-19.5 38.5l-67 -9q10 -57 42.5 -79.5t80.5 -22.5z" />
    <glyph glyph-name="acute" unicode="&#xb4;" horiz-adv-x="260" 
d="M153 591l84 137h-107l-51 -137h74z" />
    <glyph glyph-name="mu" unicode="&#xb5;" horiz-adv-x="644" 
d="M500 -114l167 785l-524 112l-167 -785zM546 511l-64 -303l-81 17l-45 134zM548 521l-63 14l-72 -60l-124 191l278 -59zM262 672l135 -209l-140 -115l48 225l-61 12l-31 -144l-53 11l49 231zM447 42l-12 -56l-182 39l57 266l75 -236zM452 68l-43 135l69 -15zM240 263
l53 43l-58 -277l-158 34l79 370l53 -11l-67 -315l62 -13z" />
    <glyph glyph-name="paragraph" unicode="&#xb6;" horiz-adv-x="418" 
d="M373 640h55v84h-248q-48 0 -83.5 -15.5t-59 -43.5t-34.5 -65.5t-11 -82.5q0 -36 9 -69.5t27.5 -61t47 -45.5t67.5 -22v-526h79v847h74v-847h77v847z" />
    <glyph glyph-name="periodcentered" unicode="&#xb7;" horiz-adv-x="217" 
d="M65 303h89v99h-89v-99z" />
    <glyph glyph-name="periodcentered" unicode="&#x2219;" horiz-adv-x="217" 
d="M65 303h89v99h-89v-99z" />
    <glyph glyph-name="cedilla" unicode="&#xb8;" horiz-adv-x="260" 
d="M96 -214q22 0 42.5 6t37 18.5t26.5 31t10 44.5q0 31 -18.5 50.5t-45.5 25.5l10 46h-62l-21 -89q23 0 42 -4t19 -24q0 -16 -12 -23t-28 -9t-32 -1t-25 1l-5 -63q19 -6 33.5 -8t28.5 -2z" />
    <glyph glyph-name="onesuperior" unicode="&#xb9;" horiz-adv-x="260" 
d="M117 367h70v366h-51q-16 -29 -44 -56t-58 -40v-63q29 10 48 21t35 25v-253z" />
    <glyph glyph-name="ordmasculine" unicode="&#xba;" horiz-adv-x="286" 
d="M143 363q38 0 63 18t40 46t21.5 60.5t6.5 61.5q0 28 -6 61t-21 61t-40.5 46.5t-63.5 18.5q-39 0 -64.5 -18.5t-40.5 -47t-21 -61.5t-6 -62t6 -61.5t21 -59.5t40.5 -45t64.5 -18zM143 668q21 0 33.5 -12.5t19 -30.5t8.5 -38.5t2 -36.5t-1.5 -37t-8 -40t-19 -32t-34.5 -13
t-34.5 12.5t-19 31t-8 39.5t-1.5 37t1.5 37t8 39.5t19 31t34.5 12.5z" />
    <glyph glyph-name="guillemotright" unicode="&#xbb;" 
d="M266 38l120 218l-121 222h-69l98 -221l-98 -219h70zM116 37l119 220l-120 220h-70l100 -219l-100 -221h71z" />
    <glyph glyph-name="onequarter" unicode="&#xbc;" horiz-adv-x="652" 
d="M163 -23l427 759h-76l-428 -759h77zM610 58h39v57h-39v236h-62l-154 -228v-65h148v-73h68v73zM116 367h70v366h-51q-16 -29 -44 -56t-58 -40v-63q29 10 48 21t35 25v-253zM539 214v-96h-67z" />
    <glyph glyph-name="onehalf" unicode="&#xbd;" horiz-adv-x="652" 
d="M393 -17h254v64h-142q21 22 45 43t44.5 44t34.5 49.5t14 61.5q0 54 -33 80.5t-83 26.5q-51 0 -80 -24t-42 -81l69 -8q8 29 18 40.5t35 11.5q45 0 45 -45q0 -18 -12.5 -35t-31.5 -35.5l-41.5 -39t-42.5 -44t-34 -50.5t-17 -59zM152 -28l429 764h-76l-430 -764h77zM116 367
h69v366h-50q-17 -29 -44.5 -56t-57.5 -40v-63q28 10 47 21.5t36 25.5v-254z" />
    <glyph glyph-name="threequarters" unicode="&#xbe;" horiz-adv-x="652" 
d="M609 58h39v57h-39v245h-55l-160 -237v-65h147v-73h68v73zM161 -28l429 764h-75l-431 -764h77zM128 348q25 0 47.5 8t38.5 23t25.5 36.5t9.5 48.5q0 63 -53 90q41 27 41 78t-30.5 76t-77.5 25q-49 0 -73.5 -21.5t-40.5 -71.5l63 -13q9 25 18.5 35t29.5 10q19 0 28.5 -11.5
t9.5 -30.5q0 -48 -59 -48l-11 -61q42 2 62.5 -6.5t20.5 -43.5q0 -25 -14 -43t-38 -18q-23 0 -34.5 11.5t-18.5 37.5l-67 -9q10 -57 42.5 -79.5t80.5 -22.5zM538 215v-98h-67z" />
    <glyph glyph-name="questiondown" unicode="&#xbf;" horiz-adv-x="479" 
d="M198 427h89v100h-89v-100zM241 -217q45 0 78 16t55.5 44t35 65.5t17.5 80.5l-81 11q-4 -27 -11 -53t-19.5 -46t-31 -32t-45.5 -12q-24 0 -43 11.5t-31.5 30t-19.5 41.5t-7 46q0 22 6.5 40.5t16.5 34.5t23 31l27 30q14 16 27 34t23.5 39t16 47t4.5 59l-1 30h-77
q0 -35 -3 -63.5t-17 -51.5q-8 -14 -20 -26.5t-23 -25.5q-19 -20 -34.5 -40t-27 -42t-17.5 -46.5t-6 -54.5q0 -41 12.5 -77t36.5 -63t58.5 -42.5t77.5 -15.5z" />
    <glyph glyph-name="Agrave" unicode="&#xc0;" horiz-adv-x="521" 
d="M248 769h74l-54 135h-108zM437 -8h99l-237 732h-88l-222 -732h93l62 219h227zM254 600q20 -77 43 -153l46 -152h-173l46 151.5t38 153.5z" />
    <glyph glyph-name="Aacute" unicode="&#xc1;" horiz-adv-x="521" 
d="M276 768l84 136h-107l-51 -136h74zM437 -8h99l-237 732h-88l-222 -732h93l62 219h227zM254 600q20 -77 43 -153l46 -152h-173l46 151.5t38 153.5z" />
    <glyph glyph-name="Acircumflex" unicode="&#xc2;" horiz-adv-x="521" 
d="M280 770h95l-87 134h-77l-83 -135h94l30 57zM437 -8h99l-237 732h-88l-222 -732h93l62 219h227zM254 600q20 -77 43 -153l46 -152h-173l46 151.5t38 153.5z" />
    <glyph glyph-name="Atilde" unicode="&#xc3;" horiz-adv-x="521" 
d="M312 761q25 0 41 11t25 28t13 38.5t4 42.5h-62q-1 -17 -3.5 -30t-16.5 -13q-11 0 -22.5 6.5t-23.5 14t-25.5 14t-28.5 6.5q-23 0 -39.5 -10.5t-26.5 -27.5t-14.5 -38t-4.5 -42h62q0 40 21 40q9 0 20 -6.5l24 -14t27.5 -13.5t29.5 -6zM437 -8h99l-237 732h-88l-222 -732
h93l62 219h227zM254 600q20 -77 43 -153l46 -152h-173l46 151.5t38 153.5z" />
    <glyph glyph-name="Adieresis" unicode="&#xc4;" horiz-adv-x="521" 
d="M283 768h84v100h-84v-100zM139 768h84v100h-84v-100zM437 -8h99l-237 732h-88l-222 -732h93l62 219h227zM254 600q20 -77 43 -153l46 -152h-173l46 151.5t38 153.5z" />
    <glyph glyph-name="Aring" unicode="&#xc5;" horiz-adv-x="521" 
d="M437 -8h99l-233 719q14 14 27.5 32.5t13.5 38.5q0 16 -6 32.5t-17 30.5t-28.5 23t-39.5 9t-39 -9t-28.5 -22.5t-17.5 -30t-6 -31.5q0 -22 15 -42t30 -34l-218 -716h93l62 219h227zM255 831q22 0 32.5 -16t10.5 -33q0 -16 -13.5 -32.5t-30.5 -16.5t-29.5 16.5t-12.5 33.5
q0 16 11 32t32 16zM254 600q20 -77 43 -153l46 -152h-173l46 151.5t38 153.5z" />
    <glyph glyph-name="AE" unicode="&#xc6;" horiz-adv-x="783" 
d="M369 -8h381v84h-294v251h264v84h-264v229h284v84h-474l-278 -732h96l78 208h207v-208zM368 637v-344h-171l132 344h39z" />
    <glyph glyph-name="Ccedilla" unicode="&#xc7;" horiz-adv-x="565" 
d="M307 -20q53 1 93 21.5t68.5 54.5t46.5 78.5t28 92.5l-83 27q-7 -37 -19 -71.5t-31.5 -60.5t-47.5 -42t-65 -16q-56 0 -90.5 29.5t-54 74.5t-26.5 97.5t-7 98.5t7.5 97t27.5 94t55 70.5t90 27.5q32 0 55.5 -11t41 -30.5t29 -46.5t19.5 -59l85 23q-12 45 -31.5 83t-48 65.5
t-65.5 43t-84 15.5q-77 0 -128 -35.5t-82.5 -90.5t-44.5 -120.5t-13 -126.5q0 -53 9.5 -114t33.5 -115.5t65.5 -95.5t105.5 -53l-15 -66q23 0 41.5 -4t18.5 -24q0 -16 -12 -23t-27.5 -9t-31.5 -1t-25 1l-5 -63q19 -6 33.5 -8t28.5 -2q22 0 42.5 6t37 18.5t26.5 31t10 44.5
q0 31 -18.5 50.5t-45.5 25.5z" />
    <glyph glyph-name="Egrave" unicode="&#xc8;" horiz-adv-x="521" 
d="M258 769h74l-54 135h-108zM54 -8h433v84h-347v252h289v84h-289v228h334v84h-420v-732z" />
    <glyph glyph-name="Eacute" unicode="&#xc9;" horiz-adv-x="521" 
d="M284 768l84 136h-107l-51 -136h74zM54 -8h433v84h-347v252h289v84h-289v228h334v84h-420v-732z" />
    <glyph glyph-name="Ecircumflex" unicode="&#xca;" horiz-adv-x="521" 
d="M297 770h95l-87 134h-77l-83 -135h94l30 57zM54 -8h433v84h-347v252h289v84h-289v228h334v84h-420v-732z" />
    <glyph glyph-name="Edieresis" unicode="&#xcb;" horiz-adv-x="521" 
d="M301 768h83v100h-83v-100zM157 768h84v100h-84v-100zM54 -8h433v84h-347v252h289v84h-289v228h334v84h-420v-732z" />
    <glyph glyph-name="Igrave" unicode="&#xcc;" horiz-adv-x="217" 
d="M97 769h73l-53 135h-109zM67 -8h86v732h-86v-732z" />
    <glyph glyph-name="Iacute" unicode="&#xcd;" horiz-adv-x="217" 
d="M122 768l84 136h-107l-51 -136h74zM67 -8h86v732h-86v-732z" />
    <glyph glyph-name="Icircumflex" unicode="&#xce;" horiz-adv-x="217" 
d="M135 770h95l-87 134h-77l-83 -135h94l30 57zM67 -8h86v732h-86v-732z" />
    <glyph glyph-name="Idieresis" unicode="&#xcf;" horiz-adv-x="217" 
d="M138 768h84v100h-84v-100zM-6 768h85v100h-85v-100zM67 -8h86v732h-86v-732z" />
    <glyph glyph-name="Eth" unicode="&#xd0;" horiz-adv-x="565" 
d="M347 0q57 17 93.5 57t56.5 91t27.5 107.5t7.5 106.5q0 46 -7 101t-26.5 105t-54 90t-88.5 56q-24 8 -51.5 9t-50.5 1h-201v-333h-61v-66h61v-333h210q20 0 42 1t42 7zM341 627q33 -14 53.5 -45t31.5 -68.5t15 -78t4 -73.5q0 -35 -3.5 -76t-14.5 -80t-32 -70.5t-55 -46.5
q-20 -8 -42 -10.5t-44 -2.5h-115v249h156v68h-155v245h113q21 0 45.5 -1.5t42.5 -9.5z" />
    <glyph glyph-name="Ntilde" unicode="&#xd1;" horiz-adv-x="565" 
d="M343 761q25 0 41 11t25.5 28t13 38.5t3.5 42.5h-60q-2 -17 -4.5 -30t-16.5 -13q-12 0 -23.5 6.5t-23.5 14t-25 14t-28 6.5q-23 0 -39.5 -10.5t-27 -27.5t-15 -38t-4.5 -42h62q0 40 21 40q9 0 20.5 -6.5l24 -14t27 -13.5t29.5 -6zM423 -8h86v732h-84v-544l-288 544h-85
v-732h84v544z" />
    <glyph glyph-name="Ograve" unicode="&#xd2;" horiz-adv-x="608" 
d="M284 769h73l-53 135h-109zM305 -20q51 0 91.5 16.5t71 45t52.5 65.5t35.5 79t20 86t6.5 85q0 61 -14.5 128.5t-47 123t-85.5 92t-129 36.5q-53 0 -94 -17t-71.5 -46.5t-52 -68t-34.5 -81.5t-18.5 -88t-5.5 -87q0 -61 15.5 -126t48.5 -119t85 -89t126 -35zM307 653
q54 0 90 -29t57.5 -73.5t30.5 -96.5t9 -98q0 -47 -8.5 -98.5t-30.5 -95t-58.5 -72t-91.5 -28.5q-53 0 -89 27t-58 69t-31.5 92t-9.5 96q0 28 2 60.5t8 64.5t17 61t29 51q26 32 59 51t75 19z" />
    <glyph glyph-name="Oacute" unicode="&#xd3;" horiz-adv-x="608" 
d="M328 768l84 136h-106l-52 -136h74zM305 -20q51 0 91.5 16.5t71 45t52.5 65.5t35.5 79t20 86t6.5 85q0 61 -14.5 128.5t-47 123t-85.5 92t-129 36.5q-53 0 -94 -17t-71.5 -46.5t-52 -68t-34.5 -81.5t-18.5 -88t-5.5 -87q0 -61 15.5 -126t48.5 -119t85 -89t126 -35z
M307 653q54 0 90 -29t57.5 -73.5t30.5 -96.5t9 -98q0 -47 -8.5 -98.5t-30.5 -95t-58.5 -72t-91.5 -28.5q-53 0 -89 27t-58 69t-31.5 92t-9.5 96q0 28 2 60.5t8 64.5t17 61t29 51q26 32 59 51t75 19z" />
    <glyph glyph-name="Ocircumflex" unicode="&#xd4;" horiz-adv-x="608" 
d="M332 770h95l-87 134h-77l-83 -135h94l30 57zM305 -20q51 0 91.5 16.5t71 45t52.5 65.5t35.5 79t20 86t6.5 85q0 61 -14.5 128.5t-47 123t-85.5 92t-129 36.5q-53 0 -94 -17t-71.5 -46.5t-52 -68t-34.5 -81.5t-18.5 -88t-5.5 -87q0 -61 15.5 -126t48.5 -119t85 -89
t126 -35zM307 653q54 0 90 -29t57.5 -73.5t30.5 -96.5t9 -98q0 -47 -8.5 -98.5t-30.5 -95t-58.5 -72t-91.5 -28.5q-53 0 -89 27t-58 69t-31.5 92t-9.5 96q0 28 2 60.5t8 64.5t17 61t29 51q26 32 59 51t75 19z" />
    <glyph glyph-name="Otilde" unicode="&#xd5;" horiz-adv-x="608" 
d="M357 761q24 0 40 11t25.5 28t13.5 38.5t4 42.5h-62q-1 -17 -3.5 -30t-16.5 -13q-11 0 -22.5 6.5t-23.5 14t-25.5 14t-28.5 6.5q-23 0 -39.5 -10.5t-26.5 -27.5t-14.5 -38t-4.5 -42h62q0 40 21 40q9 0 20 -6.5l24 -14t27.5 -13.5t29.5 -6zM305 -20q51 0 91.5 16.5t71 45
t52.5 65.5t35.5 79t20 86t6.5 85q0 61 -14.5 128.5t-47 123t-85.5 92t-129 36.5q-53 0 -94 -17t-71.5 -46.5t-52 -68t-34.5 -81.5t-18.5 -88t-5.5 -87q0 -61 15.5 -126t48.5 -119t85 -89t126 -35zM307 653q54 0 90 -29t57.5 -73.5t30.5 -96.5t9 -98q0 -47 -8.5 -98.5
t-30.5 -95t-58.5 -72t-91.5 -28.5q-53 0 -89 27t-58 69t-31.5 92t-9.5 96q0 28 2 60.5t8 64.5t17 61t29 51q26 32 59 51t75 19z" />
    <glyph glyph-name="Odieresis" unicode="&#xd6;" horiz-adv-x="608" 
d="M336 768h84v100h-84v-100zM192 768h84v100h-84v-100zM305 -20q51 0 91.5 16.5t71 45t52.5 65.5t35.5 79t20 86t6.5 85q0 61 -14.5 128.5t-47 123t-85.5 92t-129 36.5q-53 0 -94 -17t-71.5 -46.5t-52 -68t-34.5 -81.5t-18.5 -88t-5.5 -87q0 -61 15.5 -126t48.5 -119
t85 -89t126 -35zM307 653q54 0 90 -29t57.5 -73.5t30.5 -96.5t9 -98q0 -47 -8.5 -98.5t-30.5 -95t-58.5 -72t-91.5 -28.5q-53 0 -89 27t-58 69t-31.5 92t-9.5 96q0 28 2 60.5t8 64.5t17 61t29 51q26 32 59 51t75 19z" />
    <glyph glyph-name="multiply" unicode="&#xd7;" horiz-adv-x="457" 
d="M348 133l54 68l-121 153l119 152l-52 67l-119 -152l-121 152l-53 -69l119 -151l-120 -151l53 -69l121 153z" />
    <glyph glyph-name="Oslash" unicode="&#xd8;" horiz-adv-x="608" 
d="M521 603l64 91l-47 51l-59 -83q-38 36 -76.5 55t-94.5 19q-78 0 -131 -36t-85.5 -91.5t-47 -122.5t-14.5 -130q0 -38 3 -69t10.5 -59.5t18.5 -57t28 -61.5l-63 -90l47 -52l60 86q38 -37 77 -55.5t95 -18.5q76 0 128.5 36.5t85 92t47 122t14.5 127.5q0 36 -3 67.5
t-10.5 60.5t-19 58t-27.5 60zM309 652q39 0 65.5 -15.5t54.5 -42.5l-283 -400q-17 43 -23 81.5t-6 87.5q0 48 9 99t30.5 93.5t58.5 69.5t94 27zM465 518q14 -41 20.5 -83t6.5 -85q0 -47 -9.5 -97.5t-31.5 -92.5t-58.5 -69t-91.5 -27q-38 0 -65.5 13.5t-54.5 39.5z" />
    <glyph glyph-name="Ugrave" unicode="&#xd9;" horiz-adv-x="565" 
d="M260 769h73l-53 135h-108zM282 -20q74 0 119 29t69 75t31.5 103.5t7.5 114.5v422h-86v-431q0 -45 -3.5 -86t-18.5 -72t-44.5 -49.5t-81.5 -18.5q-48 0 -75.5 20.5t-41 52.5t-16.5 72.5t-3 80.5v431h-85v-422q0 -59 7 -116.5t31 -103t69 -74t121 -28.5z" />
    <glyph glyph-name="Uacute" unicode="&#xda;" horiz-adv-x="565" 
d="M304 768l84 136h-107l-51 -136h74zM282 -20q74 0 119 29t69 75t31.5 103.5t7.5 114.5v422h-86v-431q0 -45 -3.5 -86t-18.5 -72t-44.5 -49.5t-81.5 -18.5q-48 0 -75.5 20.5t-41 52.5t-16.5 72.5t-3 80.5v431h-85v-422q0 -59 7 -116.5t31 -103t69 -74t121 -28.5z" />
    <glyph glyph-name="Ucircumflex" unicode="&#xdb;" horiz-adv-x="565" 
d="M308 770h95l-87 134h-77l-83 -135h94l30 57zM282 -20q74 0 119 29t69 75t31.5 103.5t7.5 114.5v422h-86v-431q0 -45 -3.5 -86t-18.5 -72t-44.5 -49.5t-81.5 -18.5q-48 0 -75.5 20.5t-41 52.5t-16.5 72.5t-3 80.5v431h-85v-422q0 -59 7 -116.5t31 -103t69 -74t121 -28.5z
" />
    <glyph glyph-name="Udieresis" unicode="&#xdc;" horiz-adv-x="565" 
d="M312 768h84v100h-84v-100zM168 768h84v100h-84v-100zM282 -20q74 0 119 29t69 75t31.5 103.5t7.5 114.5v422h-86v-431q0 -45 -3.5 -86t-18.5 -72t-44.5 -49.5t-81.5 -18.5q-48 0 -75.5 20.5t-41 52.5t-16.5 72.5t-3 80.5v431h-85v-422q0 -59 7 -116.5t31 -103t69 -74
t121 -28.5z" />
    <glyph glyph-name="Yacute" unicode="&#xdd;" horiz-adv-x="521" 
d="M281 768l85 136h-107l-52 -136h74zM299 302l229 422h-99l-87.5 -165t-81.5 -164q-38 84 -81 164l-87 165h-103l223 -422v-310h87v310z" />
    <glyph glyph-name="Thorn" unicode="&#xde;" horiz-adv-x="521" 
d="M447 207q26 34 37 73.5t11 80.5q0 50 -18 97q-15 37 -36.5 59t-47.5 34t-57.5 15.5t-65.5 3.5h-130v154h-86v-732h86v151h136q22 0 46 2.5t46.5 9.5t43 19.5t35.5 32.5zM347 480q16 -7 28 -20t19.5 -29.5t11 -34.5t3.5 -36q0 -66 -31 -97.5t-98 -31.5h-140v255h139
q16 0 36 -0.5t32 -5.5z" />
    <glyph glyph-name="germandbls" unicode="&#xdf;" horiz-adv-x="478" 
d="M315 -20q35 0 62.5 14.5t46 38t28 53.5t9.5 62t-11 56.5t-28.5 44t-40 35.5l-44.5 32q-16 11 -34 27.5t-18 38.5q0 18 13.5 40.5l30 48t30 54.5t13.5 60q0 32 -11 59.5t-31 48t-47.5 32t-60.5 11.5q-56 0 -89.5 -23.5t-51.5 -59.5t-24 -80t-6 -85v-496h83v504
q0 23 1 52.5t9 55t25.5 43t50.5 17.5q31 0 50.5 -20t19.5 -50q0 -26 -14 -50.5t-31 -50t-31 -51.5t-14 -55q0 -30 13.5 -52.5t33.5 -41t43 -34.5t43 -33t33.5 -36.5t13.5 -44.5q0 -15 -4.5 -31t-13 -29t-21 -21.5t-28.5 -8.5q-15 0 -27 8.5t-21.5 22t-17 29t-13.5 30.5
l-65 -37q9 -26 22.5 -49t31.5 -40.5t41 -28t51 -10.5z" />
    <glyph glyph-name="agrave" unicode="&#xe0;" 
d="M206 592h74l-54 136h-108zM327 -8h86q-14 33 -19.5 77.5t-7 91.5t-0.5 93.5t1 82.5q0 44 -4.5 81.5t-21 65.5t-49 43.5t-87.5 15.5q-79 0 -126.5 -36.5t-61.5 -122.5l76 -14q5 26 12.5 44.5t18.5 30.5t28 17.5t42 5.5q54 0 72.5 -32.5t18.5 -83.5v-21q-35 -14 -74.5 -19
t-77 -14t-69 -28.5t-49.5 -62.5q-8 -17 -11 -35.5t-3 -36.5q0 -69 38 -111.5t109 -42.5q46 0 80 17t64 46q2 -12 5.5 -25t9.5 -27zM305 253v-23q0 -32 -5.5 -64t-19.5 -57t-37.5 -40.5t-60.5 -15.5q-36 0 -55.5 22.5t-19.5 58.5q0 39 19 56.5t51 26.5t64.5 15t63.5 21z" />
    <glyph glyph-name="aacute" unicode="&#xe1;" 
d="M246 591l84 137h-107l-51 -137h74zM327 -8h86q-14 33 -19.5 77.5t-7 91.5t-0.5 93.5t1 82.5q0 44 -4.5 81.5t-21 65.5t-49 43.5t-87.5 15.5q-79 0 -126.5 -36.5t-61.5 -122.5l76 -14q5 26 12.5 44.5t18.5 30.5t28 17.5t42 5.5q54 0 72.5 -32.5t18.5 -83.5v-21
q-35 -14 -74.5 -19t-77 -14t-69 -28.5t-49.5 -62.5q-8 -17 -11 -35.5t-3 -36.5q0 -69 38 -111.5t109 -42.5q46 0 80 17t64 46q2 -12 5.5 -25t9.5 -27zM305 253v-23q0 -32 -5.5 -64t-19.5 -57t-37.5 -40.5t-60.5 -15.5q-36 0 -55.5 22.5t-19.5 58.5q0 39 19 56.5t51 26.5
t64.5 15t63.5 21z" />
    <glyph glyph-name="acircumflex" unicode="&#xe2;" 
d="M243 593h95l-87 135h-77l-84 -135h95l29 57zM327 -8h86q-14 33 -19.5 77.5t-7 91.5t-0.5 93.5t1 82.5q0 44 -4.5 81.5t-21 65.5t-49 43.5t-87.5 15.5q-79 0 -126.5 -36.5t-61.5 -122.5l76 -14q5 26 12.5 44.5t18.5 30.5t28 17.5t42 5.5q54 0 72.5 -32.5t18.5 -83.5v-21
q-35 -14 -74.5 -19t-77 -14t-69 -28.5t-49.5 -62.5q-8 -17 -11 -35.5t-3 -36.5q0 -69 38 -111.5t109 -42.5q46 0 80 17t64 46q2 -12 5.5 -25t9.5 -27zM305 253v-23q0 -32 -5.5 -64t-19.5 -57t-37.5 -40.5t-60.5 -15.5q-36 0 -55.5 22.5t-19.5 58.5q0 39 19 56.5t51 26.5
t64.5 15t63.5 21z" />
    <glyph glyph-name="atilde" unicode="&#xe3;" 
d="M266 596q24 0 40 11t25.5 28.5t13.5 38.5t4 42h-61q-1 -5 -1.5 -12.5t-2.5 -14t-6 -11t-11 -4.5q-11 0 -22.5 6.5t-23.5 14t-25.5 14t-28.5 6.5q-23 0 -39.5 -10.5t-26.5 -27.5t-14.5 -38.5t-4.5 -42.5h61q0 41 22 41q9 0 20 -6.5l24 -14t27.5 -14t29.5 -6.5zM327 -8h86
q-14 33 -19.5 77.5t-7 91.5t-0.5 93.5t1 82.5q0 44 -4.5 81.5t-21 65.5t-49 43.5t-87.5 15.5q-79 0 -126.5 -36.5t-61.5 -122.5l76 -14q5 26 12.5 44.5t18.5 30.5t28 17.5t42 5.5q54 0 72.5 -32.5t18.5 -83.5v-21q-35 -14 -74.5 -19t-77 -14t-69 -28.5t-49.5 -62.5
q-8 -17 -11 -35.5t-3 -36.5q0 -69 38 -111.5t109 -42.5q46 0 80 17t64 46q2 -12 5.5 -25t9.5 -27zM305 253v-23q0 -32 -5.5 -64t-19.5 -57t-37.5 -40.5t-60.5 -15.5q-36 0 -55.5 22.5t-19.5 58.5q0 39 19 56.5t51 26.5t64.5 15t63.5 21z" />
    <glyph glyph-name="adieresis" unicode="&#xe4;" 
d="M246 629h84v99h-84v-99zM102 629h84v99h-84v-99zM327 -8h86q-14 33 -19.5 77.5t-7 91.5t-0.5 93.5t1 82.5q0 44 -4.5 81.5t-21 65.5t-49 43.5t-87.5 15.5q-79 0 -126.5 -36.5t-61.5 -122.5l76 -14q5 26 12.5 44.5t18.5 30.5t28 17.5t42 5.5q54 0 72.5 -32.5t18.5 -83.5
v-21q-35 -14 -74.5 -19t-77 -14t-69 -28.5t-49.5 -62.5q-8 -17 -11 -35.5t-3 -36.5q0 -69 38 -111.5t109 -42.5q46 0 80 17t64 46q2 -12 5.5 -25t9.5 -27zM305 253v-23q0 -32 -5.5 -64t-19.5 -57t-37.5 -40.5t-60.5 -15.5q-36 0 -55.5 22.5t-19.5 58.5q0 39 19 56.5t51 26.5
t64.5 15t63.5 21z" />
    <glyph glyph-name="aring" unicode="&#xe5;" 
d="M215 559q23 0 40 9t28.5 23t17 30.5t5.5 32.5t-6 32.5t-17 30.5t-28.5 23t-39.5 9t-39 -9t-28.5 -22.5t-17.5 -30t-6 -31.5q0 -16 5.5 -33t16.5 -31.5t28.5 -23.5t40.5 -9zM327 -8h86q-14 33 -19.5 77.5t-7 91.5t-0.5 93.5t1 82.5q0 44 -4.5 81.5t-21 65.5t-49 43.5
t-87.5 15.5q-79 0 -126.5 -36.5t-61.5 -122.5l76 -14q5 26 12.5 44.5t18.5 30.5t28 17.5t42 5.5q54 0 72.5 -32.5t18.5 -83.5v-21q-35 -14 -74.5 -19t-77 -14t-69 -28.5t-49.5 -62.5q-8 -17 -11 -35.5t-3 -36.5q0 -69 38 -111.5t109 -42.5q46 0 80 17t64 46q2 -12 5.5 -25
t9.5 -27zM217 703q21 0 32 -16.5t11 -33.5q0 -16 -11 -32.5t-32 -16.5q-22 0 -32.5 17t-10.5 33q0 17 10.5 33t32.5 16zM305 253v-23q0 -32 -5.5 -64t-19.5 -57t-37.5 -40.5t-60.5 -15.5q-36 0 -55.5 22.5t-19.5 58.5q0 39 19 56.5t51 26.5t64.5 15t63.5 21z" />
    <glyph glyph-name="ae" unicode="&#xe6;" horiz-adv-x="695" 
d="M375 239h297v37q0 42 -9.5 89t-31 86.5t-57.5 65.5t-90 26q-42 0 -73 -15.5t-56 -45.5q-23 37 -61 49t-78 12q-81 0 -123.5 -41t-58.5 -124l75 -11q4 28 11 47.5t18.5 31.5t29.5 17.5t44 5.5q28 0 45 -9.5t25.5 -26t11 -39t2.5 -48.5v-17q-33 -11 -70.5 -17t-73.5 -15.5
t-66.5 -27t-48.5 -53.5q-10 -19 -14.5 -40t-4.5 -42q0 -66 38.5 -109.5t107.5 -43.5q54 0 94 26t72 64q26 -41 61 -65.5t88 -24.5q77 0 122.5 47.5t64.5 123.5l-81 11q-11 -46 -34.5 -76.5t-65.5 -30.5q-31 0 -58 22q-36 30 -44 72t-8 89zM484 468q29 0 48.5 -14.5t32 -37
t18.5 -50t8 -53.5h-217q2 27 8.5 54.5t19 50t33 36.5t49.5 14zM103 134q0 35 25 56.5t58 33.5t65 17t46 6q0 -11 -1 -32.5t-5.5 -46.5t-14 -48.5t-26.5 -38.5q-33 -28 -74 -28q-35 0 -54 22.5t-19 58.5z" />
    <glyph glyph-name="ccedilla" unicode="&#xe7;" horiz-adv-x="391" 
d="M225 -19q39 2 68 18t49.5 42t32.5 60t17 71l-78 11q-3 -26 -9.5 -49t-17.5 -41t-28.5 -28.5t-41.5 -10.5q-36 0 -57 21.5t-32 53t-14.5 68t-3.5 66.5t4 66t15.5 67.5t33 52.5t57.5 21q19 0 34 -8.5t25.5 -23.5t17.5 -34t11 -40l76 14q-6 37 -19 67t-34 52t-49.5 34
t-65.5 12q-58 0 -94.5 -28t-57.5 -70.5t-29 -92.5t-8 -93q0 -36 5.5 -78t21 -80t42 -69t68.5 -44l-14 -59q23 0 42 -4t19 -24t-16.5 -26.5t-37.5 -6.5h-44l-3 -62q17 -6 32 -8t29 -2q22 0 42.5 6t37 18t26.5 31t10 45q0 31 -18.5 50t-45.5 25z" />
    <glyph glyph-name="egrave" unicode="&#xe8;" 
d="M195 592h73l-52 136h-109zM100 237h310v31q0 43 -9 91.5t-31 89t-59 67.5t-93 27q-58 0 -96 -28t-60.5 -70.5t-31.5 -93t-9 -94.5q0 -46 9 -94.5t31.5 -89t60.5 -66.5t97 -26q77 0 122 45.5t63 122.5l-82 11q-14 -45 -37.5 -75t-67.5 -30q-32 0 -53.5 17.5t-35 44.5
t-20 59t-8.5 61zM218 468q28 0 48 -14.5t32.5 -37t19 -50t8.5 -52.5h-220q2 26 9 53t20.5 49.5t34 37t48.5 14.5z" />
    <glyph glyph-name="eacute" unicode="&#xe9;" 
d="M247 591l84 137h-107l-51 -137h74zM100 237h310v31q0 43 -9 91.5t-31 89t-59 67.5t-93 27q-58 0 -96 -28t-60.5 -70.5t-31.5 -93t-9 -94.5q0 -46 9 -94.5t31.5 -89t60.5 -66.5t97 -26q77 0 122 45.5t63 122.5l-82 11q-14 -45 -37.5 -75t-67.5 -30q-32 0 -53.5 17.5
t-35 44.5t-20 59t-8.5 61zM218 468q28 0 48 -14.5t32.5 -37t19 -50t8.5 -52.5h-220q2 26 9 53t20.5 49.5t34 37t48.5 14.5z" />
    <glyph glyph-name="ecircumflex" unicode="&#xea;" 
d="M243 593h95l-87 135h-77l-83 -135h94l30 57zM100 237h310v31q0 43 -9 91.5t-31 89t-59 67.5t-93 27q-58 0 -96 -28t-60.5 -70.5t-31.5 -93t-9 -94.5q0 -46 9 -94.5t31.5 -89t60.5 -66.5t97 -26q77 0 122 45.5t63 122.5l-82 11q-14 -45 -37.5 -75t-67.5 -30
q-32 0 -53.5 17.5t-35 44.5t-20 59t-8.5 61zM218 468q28 0 48 -14.5t32.5 -37t19 -50t8.5 -52.5h-220q2 26 9 53t20.5 49.5t34 37t48.5 14.5z" />
    <glyph glyph-name="edieresis" unicode="&#xeb;" 
d="M246 629h84v99h-84v-99zM102 629h85v99h-85v-99zM100 237h310v31q0 43 -9 91.5t-31 89t-59 67.5t-93 27q-58 0 -96 -28t-60.5 -70.5t-31.5 -93t-9 -94.5q0 -46 9 -94.5t31.5 -89t60.5 -66.5t97 -26q77 0 122 45.5t63 122.5l-82 11q-14 -45 -37.5 -75t-67.5 -30
q-32 0 -53.5 17.5t-35 44.5t-20 59t-8.5 61zM218 468q28 0 48 -14.5t32.5 -37t19 -50t8.5 -52.5h-220q2 26 9 53t20.5 49.5t34 37t48.5 14.5z" />
    <glyph glyph-name="igrave" unicode="&#xec;" horiz-adv-x="217" 
d="M89 592h74l-54 136h-108zM70 -8h81v539h-81v-539z" />
    <glyph glyph-name="iacute" unicode="&#xed;" horiz-adv-x="217" 
d="M140 591l84 137h-106l-52 -137h74zM70 -8h81v539h-81v-539z" />
    <glyph glyph-name="icircumflex" unicode="&#xee;" horiz-adv-x="217" 
d="M141 593h95l-87 135h-77l-83 -135h94l30 57zM70 -8h81v539h-81v-539z" />
    <glyph glyph-name="idieresis" unicode="&#xef;" horiz-adv-x="217" 
d="M140 629h84v99h-84v-99zM-4 629h85v99h-85v-99zM70 -8h81v539h-81v-539z" />
    <glyph glyph-name="eth" unicode="&#xf0;" horiz-adv-x="436" 
d="M216 -20q55 0 92.5 27t60.5 67.5t32.5 89t9.5 91.5q0 103 -32 195t-89 176l64 38l-20 56l-85 -52l-26.5 27.5l-29.5 28.5h-87q32 -28 52 -48t37 -39l-95 -55l19 -54l105 61q25 -38 42 -78q-14 8 -29.5 12t-35.5 4q-54 0 -88.5 -28t-55 -69.5t-28.5 -89.5t-8 -88
q0 -44 9 -92t31 -88t60 -66t95 -26zM213 456q34 0 56.5 -20t35.5 -50t18 -64.5t5 -64.5q0 -29 -5 -64.5t-17.5 -66.5t-34.5 -52t-56 -21t-56 19.5t-34.5 49t-17 64t-4.5 63.5t4 65t16 67.5t33.5 53t56.5 21.5z" />
    <glyph glyph-name="ntilde" unicode="&#xf1;" 
d="M278 596q25 0 41 11t25.5 28.5t13.5 38.5t4 42h-61q-2 -16 -4.5 -29t-16.5 -13q-11 0 -22.5 6.5t-23.5 14t-25.5 14t-28.5 6.5q-23 0 -39.5 -10.5t-26.5 -27.5t-14.5 -38.5t-4.5 -42.5h61q0 41 21 41q9 0 20.5 -6.5l24 -14t27 -14t29.5 -6.5zM306 -8h83v338q0 36 -4.5 74
t-20 69t-45 50.5t-78.5 19.5q-42 0 -72 -18t-51 -48v54h-74v-539h83v303q0 28 3.5 58t14 55t30.5 41t53 16q26 0 41.5 -12.5t23.5 -32.5t10.5 -44t2.5 -47v-337z" />
    <glyph glyph-name="ograve" unicode="&#xf2;" 
d="M195 592h74l-54 136h-108zM319 14q31 22 49.5 52t28.5 63.5t13.5 69.5t3.5 70q0 45 -9.5 93t-32.5 88.5t-61 66.5t-95 26q-59 0 -97 -27t-60.5 -68t-31.5 -91t-9 -95t9 -95t31.5 -91t60.5 -68t97 -27q56 0 103 33zM217 469q34 0 56.5 -21t35 -51.5t17.5 -66t5 -65.5
t-4.5 -66.5t-17 -68.5t-34.5 -53.5t-58 -21.5t-58 21t-35 52.5t-17.5 67.5t-4.5 66t4.5 66t17.5 67.5t35 52.5t58 21z" />
    <glyph glyph-name="oacute" unicode="&#xf3;" 
d="M247 591l84 137h-107l-51 -137h74zM319 14q31 22 49.5 52t28.5 63.5t13.5 69.5t3.5 70q0 45 -9.5 93t-32.5 88.5t-61 66.5t-95 26q-59 0 -97 -27t-60.5 -68t-31.5 -91t-9 -95t9 -95t31.5 -91t60.5 -68t97 -27q56 0 103 33zM217 469q34 0 56.5 -21t35 -51.5t17.5 -66
t5 -65.5t-4.5 -66.5t-17 -68.5t-34.5 -53.5t-58 -21.5t-58 21t-35 52.5t-17.5 67.5t-4.5 66t4.5 66t17.5 67.5t35 52.5t58 21z" />
    <glyph glyph-name="ocircumflex" unicode="&#xf4;" 
d="M244 593h95l-87 135h-77l-84 -135h95l29 57zM319 14q31 22 49.5 52t28.5 63.5t13.5 69.5t3.5 70q0 45 -9.5 93t-32.5 88.5t-61 66.5t-95 26q-59 0 -97 -27t-60.5 -68t-31.5 -91t-9 -95t9 -95t31.5 -91t60.5 -68t97 -27q56 0 103 33zM217 469q34 0 56.5 -21t35 -51.5
t17.5 -66t5 -65.5t-4.5 -66.5t-17 -68.5t-34.5 -53.5t-58 -21.5t-58 21t-35 52.5t-17.5 67.5t-4.5 66t4.5 66t17.5 67.5t35 52.5t58 21z" />
    <glyph glyph-name="otilde" unicode="&#xf5;" 
d="M267 596q24 0 40 11t25.5 28.5t13.5 38.5t4 42h-61q-1 -5 -1.5 -12.5t-2.5 -14t-6 -11t-11 -4.5q-11 0 -22.5 6.5t-23.5 14t-25.5 14t-28.5 6.5q-23 0 -39.5 -10.5t-26.5 -27.5t-14.5 -38.5t-4.5 -42.5h61q0 41 22 41q9 0 20 -6.5l24 -14t27.5 -14t29.5 -6.5zM319 14
q31 22 49.5 52t28.5 63.5t13.5 69.5t3.5 70q0 45 -9.5 93t-32.5 88.5t-61 66.5t-95 26q-59 0 -97 -27t-60.5 -68t-31.5 -91t-9 -95t9 -95t31.5 -91t60.5 -68t97 -27q56 0 103 33zM217 469q34 0 56.5 -21t35 -51.5t17.5 -66t5 -65.5t-4.5 -66.5t-17 -68.5t-34.5 -53.5
t-58 -21.5t-58 21t-35 52.5t-17.5 67.5t-4.5 66t4.5 66t17.5 67.5t35 52.5t58 21z" />
    <glyph glyph-name="odieresis" unicode="&#xf6;" 
d="M247 629h84v99h-84v-99zM103 629h84v99h-84v-99zM319 14q31 22 49.5 52t28.5 63.5t13.5 69.5t3.5 70q0 45 -9.5 93t-32.5 88.5t-61 66.5t-95 26q-59 0 -97 -27t-60.5 -68t-31.5 -91t-9 -95t9 -95t31.5 -91t60.5 -68t97 -27q56 0 103 33zM217 469q34 0 56.5 -21t35 -51.5
t17.5 -66t5 -65.5t-4.5 -66.5t-17 -68.5t-34.5 -53.5t-58 -21.5t-58 21t-35 52.5t-17.5 67.5t-4.5 66t4.5 66t17.5 67.5t35 52.5t58 21z" />
    <glyph glyph-name="divide" unicode="&#xf7;" horiz-adv-x="430" 
d="M170 450h89v100h-89v-100zM23 312h384v82h-384v-82zM170 156h89v100h-89v-100z" />
    <glyph glyph-name="oslash" unicode="&#xf8;" horiz-adv-x="478" 
d="M237 -20q59 0 97.5 26.5t61 67.5t31.5 90.5t9 95.5q0 55 -8.5 99t-35.5 93l39 64l-48 40l-34 -54q-26 18 -52.5 29.5t-59.5 11.5q-43 0 -77 -19t-60 -51q-18 -22 -29.5 -49t-18 -56.5t-8.5 -59t-2 -55.5q0 -50 9 -97.5t37 -91.5l-38 -61l44 -45l37 58q23 -17 50 -26.5
t56 -9.5zM242 468q19 0 35.5 -9t30.5 -23l-169 -281q-8 26 -11 54t-3 57q0 30 5 65.5t18 65.5t36 50.5t58 20.5zM341 360q12 -50 12 -102q0 -32 -5 -67.5t-18.5 -65.5t-37 -49.5t-59.5 -19.5q-33 0 -60 24z" />
    <glyph glyph-name="ugrave" unicode="&#xf9;" 
d="M211 592h73l-52 136h-109zM310 -8h76v539h-81v-298q0 -29 -3.5 -60t-14.5 -56.5t-31 -42.5t-54 -17q-33 0 -49 17.5t-23 43t-7 54.5v51v308h-80v-340q0 -26 1.5 -53.5t8.5 -53.5t22.5 -48t42.5 -37q17 -10 35 -14t36 -4q40 0 70 18.5t51 47.5v-55z" />
    <glyph glyph-name="uacute" unicode="&#xfa;" 
d="M242 591l84 137h-107l-51 -137h74zM310 -8h76v539h-81v-298q0 -29 -3.5 -60t-14.5 -56.5t-31 -42.5t-54 -17q-33 0 -49 17.5t-23 43t-7 54.5v51v308h-80v-340q0 -26 1.5 -53.5t8.5 -53.5t22.5 -48t42.5 -37q17 -10 35 -14t36 -4q40 0 70 18.5t51 47.5v-55z" />
    <glyph glyph-name="ucircumflex" unicode="&#xfb;" 
d="M242 593h95l-87 135h-77l-83 -135h94l29 57zM310 -8h76v539h-81v-298q0 -29 -3.5 -60t-14.5 -56.5t-31 -42.5t-54 -17q-33 0 -49 17.5t-23 43t-7 54.5v51v308h-80v-340q0 -26 1.5 -53.5t8.5 -53.5t22.5 -48t42.5 -37q17 -10 35 -14t36 -4q40 0 70 18.5t51 47.5v-55z" />
    <glyph glyph-name="udieresis" unicode="&#xfc;" 
d="M245 629h84v99h-84v-99zM101 629h84v99h-84v-99zM310 -8h76v539h-81v-298q0 -29 -3.5 -60t-14.5 -56.5t-31 -42.5t-54 -17q-33 0 -49 17.5t-23 43t-7 54.5v51v308h-80v-340q0 -26 1.5 -53.5t8.5 -53.5t22.5 -48t42.5 -37q17 -10 35 -14t36 -4q40 0 70 18.5t51 47.5v-55z
" />
    <glyph glyph-name="yacute" unicode="&#xfd;" horiz-adv-x="391" 
d="M229 591l84 137h-107l-51 -137h74zM237 -4l157 535h-82l-90 -310l-11.5 -42l-10.5 -42q-24 98 -52.5 195.5l-56.5 198.5h-87l158 -532q-5 -17 -9.5 -41.5t-13 -47t-22.5 -39t-38 -16.5q-9 0 -20 2.5t-30 7.5l12 -67q13 -8 25.5 -11t25.5 -3q36 0 60.5 23t40.5 56t26 69.5
z" />
    <glyph glyph-name="thorn" unicode="&#xfe;" 
d="M320 16q27 21 44.5 50.5t28 63t14.5 68t4 65.5q0 40 -8.5 88t-29 89.5t-55.5 69.5t-89 28q-37 0 -60.5 -14t-43.5 -38v238h-81v-931h83v236q19 -22 41.5 -35.5t57.5 -13.5q26 0 50 10t44 26zM226 467q32 0 52.5 -22t32 -53.5t15.5 -66.5t4 -62q0 -28 -4 -64t-15.5 -68.5
t-32.5 -54.5t-55 -22q-33 0 -53.5 21.5t-31.5 52t-15 65.5t-4 62t4.5 63.5t16.5 69.5t33 56t53 23z" />
    <glyph glyph-name="ydieresis" unicode="&#xff;" horiz-adv-x="391" 
d="M230 629h84v99h-84v-99zM86 629h85v99h-85v-99zM237 -4l157 535h-82l-90 -310l-11.5 -42l-10.5 -42q-24 98 -52.5 195.5l-56.5 198.5h-87l158 -532q-5 -17 -9.5 -41.5t-13 -47t-22.5 -39t-38 -16.5q-9 0 -20 2.5t-30 7.5l12 -67q13 -8 25.5 -11t25.5 -3q36 0 60.5 23
t40.5 56t26 69.5z" />
    <glyph glyph-name="minus" unicode="&#xe000;" horiz-adv-x="644" 
d="M462 276h156v440h-386l200 -200l65 81h31l-148 -180zM191 289l151 188l-191 191h-131v-268h140v148h31v-259zM352 2h266v238h-163l87 -150h-42l-148 260v-348zM20 -47h247v345l-75 -93v-164h-32v323h-140v-411z" />
    <glyph glyph-name="notequal" unicode="&#xe001;" horiz-adv-x="430" 
d="M195 198h212v90h-181l47 133h134v85h-109l77 222h-63l-79 -225h-210v-82h183l-48 -136h-135v-82h107l-78 -225h68z" />
    <glyph glyph-name="infinity" unicode="&#xe002;" horiz-adv-x="557" 
d="M390 467q35 0 58 13t36.5 32.5t18.5 42.5t5 44t-6 43t-20 41t-37 31t-56 12q-45 0 -67.5 -21t-40.5 -51q-9 13 -19.5 25.5t-23.5 22.5t-28.5 16.5t-33.5 6.5q-25 0 -47.5 -12.5t-40 -31.5t-27.5 -42t-10 -45t10 -45t27 -42t39.5 -31.5t48.5 -12.5q18 0 33.5 6.5t28.5 17
t24 23.5t20 26q10 -17 20 -29.5t22 -21.5t28 -13.5t38 -4.5zM388 675q19 0 31 -7.5t19.5 -19.5t10.5 -26t3 -27q0 -12 -3 -26t-10 -25.5t-19.5 -19t-30.5 -7.5q-17 0 -28.5 7.5t-20 19.5t-14.5 26t-12 26q6 11 12.5 24.5t15.5 25.5t20 20.5t26 8.5zM236 614l6 -10l6 -10
q-5 -9 -12.5 -21t-17 -23.5t-20 -19t-21.5 -7.5q-13 0 -25.5 7.5t-22 18t-15.5 23t-6 23.5q0 10 5.5 22.5t15 23t22 17.5t25.5 7q20 0 35 -18t25 -33z" />
    <glyph glyph-name="lessequal" unicode="&#xe003;" horiz-adv-x="429" 
d="M23 376l384 -208v89l-299 156l298 153v88l-383 -204v-74zM22 52h384v81h-384v-81z" />
    <glyph glyph-name="greaterequal" unicode="&#xe004;" horiz-adv-x="429" 
d="M23 169l383 205v77l-384 204v-87l300 -156l-299 -157v-86zM23 52h384v81h-384v-81z" />
    <glyph glyph-name="partialdiff" unicode="&#xe005;" horiz-adv-x="387" 
d="M255 34q38 34 62 86t38 110t19.5 116.5t5.5 105.5q0 20 -1.5 49.5t-6.5 61t-13.5 62.5t-23.5 55.5t-36 40t-50 15.5q-30 0 -53.5 -15.5t-41.5 -38.5t-31 -51t-21 -52l61 -33q5 18 12 39.5t17 40.5t23.5 32t32.5 13q27 0 42 -27.5t22 -64.5t8.5 -73t1.5 -54
q-68 -3 -125 -22.5t-97.5 -56t-63 -91.5t-22.5 -128q0 -28 5.5 -58.5t20 -56t38.5 -42.5t61 -17q35 0 64 16t52 38zM123 263q16 34 35 56t43 35.5t53 19.5t65 9q-3 -38 -10 -82t-19.5 -86.5t-31.5 -79.5t-47 -60q-14 -11 -28 -18t-30 -7q-15 0 -25.5 8.5t-18 21.5t-11 29
t-3.5 30q0 32 7.5 63.5t20.5 60.5z" />
    <glyph glyph-name="summation" unicode="&#xe006;" horiz-adv-x="558" 
d="M38 -218h499v80h-403l253 406l-242 391h388v77h-488v-94l232 -376l-239 -384v-100z" />
    <glyph glyph-name="product" unicode="&#xe007;" horiz-adv-x="644" 
d="M505 -218h85v954h-537v-954h86v870h366v-870z" />
    <glyph glyph-name="pi" unicode="&#xe008;" horiz-adv-x="436" 
d="M304 -207h83v738h-75v-51q-20 28 -46.5 45.5t-64.5 17.5q-54 0 -89 -28t-55.5 -70t-28.5 -90t-8 -88t8.5 -89.5t29.5 -93t57 -73.5t90 -30q29 0 55 13t44 34v-235zM205 471q35 0 56 -24.5t32.5 -59t15 -71.5t3.5 -62q0 -27 -4 -61t-15 -65t-31 -52t-52 -21q-33 0 -54 22
t-33 54t-16 68t-4 64q0 25 3 60.5t13.5 68.5t30.5 56t55 23z" />
    <glyph glyph-name="integral" unicode="&#xe009;" horiz-adv-x="208" 
d="M173 808q22 0 32.5 16.5t10.5 33.5q0 22 -17.5 36.5t-37.5 14.5q-27 0 -44 -23.5t-27 -55.5t-13.5 -65t-3.5 -52q-2 -86 -4.5 -172.5t-2.5 -173.5q0 -80 3.5 -159.5t10.5 -158.5q2 -14 3 -28.5t1 -28.5v-13q0 -9 -7 -9q-2 0 -4 2l-4 4l-5 5q-5 6 -12 11.5t-19 5.5
q-21 0 -31 -15t-10 -32q0 -22 13 -39.5t38 -17.5q22 0 37 13.5t25.5 35t16 48t8 52.5t3.5 49t1 37l4 143.5t2 143.5q0 81 -4.5 162t-9.5 162q-3 34 -3 70q0 5 -0.5 14t6.5 9q2 0 4.5 -2t4.5 -4l5 -4q5 -5 12 -10t18 -5z" />
    <glyph glyph-name="Omega" unicode="&#xe00a;" horiz-adv-x="824" 
d="M598 218h232v21h-245l-110 190l240 295h-98l-91 -112l-286 286l-15 -15l287 -289l-181 -225v355h-86v-224h-237v-22h237v-486h88v259l73 90v-507h22v494l191 -336h110z" />
    <glyph glyph-name="radical" unicode="&#xe00b;" horiz-adv-x="425" 
d="M310 -61l124 979h-41l-98 -768l-146 376l-127 -80l16 -36l74 42z" />
    <glyph glyph-name="approxequal" unicode="&#xe00c;" horiz-adv-x="429" 
d="M303 365q35 0 61.5 14t50.5 41v116q-27 -36 -53 -56.5t-52 -20.5q-20 0 -40.5 10.5t-42.5 23.5t-47 23.5t-54 10.5q-36 0 -64 -16.5t-49 -47.5v-109q31 35 54.5 55.5t52.5 20.5q22 0 43 -10t42.5 -22.5t45 -22.5t52.5 -10zM304 186q35 0 61.5 15t50.5 42v115
q-27 -36 -53 -57.5t-52 -21.5q-20 0 -40.5 9.5t-43 21.5t-47.5 21.5t-53 9.5q-68 0 -112 -54v-109q31 35 54 53.5t52 18.5q23 0 44 -10t42.5 -22t45 -22t51.5 -10z" />
    <glyph glyph-name="Delta" unicode="&#xe00d;" horiz-adv-x="644" 
d="M530 197l85 399l-326 69l124 -190l72 59l71 -16l-200 -159l45 -134zM257 348l140 114l-135 209l-106 23l-49 -231l106 -23l31 146l60 -14zM483 -24l43 202l-118 24l54 -164l-77 16l-75 237l-57 -266zM235 29l58 277l-53 -43l-36 -170l-62 13l67 315l-106 22l-79 -369z
" />
    <glyph glyph-name="nonbreakingspace" unicode="&#xe00e;" horiz-adv-x="218" 
 />
    <glyph glyph-name="lozenge" unicode="&#xe00f;" horiz-adv-x="387" 
d="M214 -8l165 354l-166 356h-50l-154 -355l154 -355h51zM189 625l128 -279l-128 -278l-121 277z" />
    <glyph glyph-name="apple" unicode="&#xe010;" horiz-adv-x="644" 
d="M456 59l-44 133l69 -14zM498 -152l172 813l-524 111l-173 -813l84 -19l102 483l54 -11l-67 -315l62 -13l36 170l52 42l-82 -390l18 -6l81 381l75 -236l62 -12l-36 -168zM551 503l-65 -305l-81 17l-45 134zM553 512l-64 13l-73 -59l-123 189l278 -58zM266 661l135 -208
l-141 -115l47 225l-60 14l-31 -145l-53 11l49 229z" />
    </font>
</defs>
</svg>
